<svg xmlns="http://www.w3.org/2000/svg" xmlns:xlink="http://www.w3.org/1999/xlink" id="body_17" preserveAspectRatio="xMinYMin meet" viewBox="0 0 1280 720"><defs><clipPath id="1"><path d="M0 540L0 0L0 0L960 0L960 0L960 540L960 540L0 540z" /></clipPath><clipPath id="2"><path d="M0 539.9999L960 539.9999L960 539.9999L960 -0.0001220703L960 -0.0001220703L0 -0.0001220703z" /></clipPath><clipPath id="3"><path d="M-7.49E-07 539.9998L960 539.9998L960 539.9998L960 -0.0002441406L960 -0.0002441406L-7.49E-07 -0.0002441406z" /></clipPath><pattern patternTransform="matrix(0.36851 0 0 -0.28955 198.21 238.25)" id="525" x="0" y="0" width="1536" height="843" patternUnits="userSpaceOnUse"><image x="0" y="0" width="1536" height="843" xlink:href="img_38.png" /></pattern><clipPath id="4"><path d="M-7.49E-07 539.9998L960 539.9998L960 539.9998L960 -0.0002441406L960 -0.0002441406L-7.49E-07 -0.0002441406z" /></clipPath><pattern patternTransform="matrix(0.5509 0 0 -0.3526 198.21 235.69)" id="977" x="0" y="0" width="1023" height="685" patternUnits="userSpaceOnUse"><image x="0" y="0" width="1023" height="685" xlink:href="img_39.png" /></pattern><clipPath id="5"><path d="M-6.68E-07 0L960 0L960 0L960 539.9999L960 539.9999L-1.736E-06 540" /></clipPath><pattern patternTransform="matrix(0.36851 0 -1E-09 -0.28955 198.21 238.25)" id="1386" x="0" y="0" width="1536" height="843" patternUnits="userSpaceOnUse"><image x="0" y="0" width="1536" height="843" xlink:href="img_38.png" /></pattern><clipPath id="6"><path d="M-6.68E-07 0L960 0L960 0L960 539.9999L960 539.9999L-1.736E-06 540" /></clipPath><clipPath id="7"><path d="M-8.2E-07 0L960 0L960 0L960 539.9999L960 539.9999L-2.932E-06 540" /></clipPath><pattern patternTransform="matrix(0.36851 0 -1E-09 -0.28955 198.21 238.25)" id="1964" x="0" y="0" width="1536" height="843" patternUnits="userSpaceOnUse"><image x="0" y="0" width="1536" height="843" xlink:href="img_38.png" /></pattern><clipPath id="8"><path d="M-8.2E-07 0L960 0L960 0L960 539.9999L960 539.9999L-2.932E-06 540" /></clipPath><clipPath id="9"><path d="M-1.605E-06 0L960 0L960 0L960 539.9999L960 539.9999L-2.673E-06 540" /></clipPath><pattern patternTransform="matrix(0.36851 0 -1E-09 -0.28955 198.21 238.25)" id="2543" x="0" y="0" width="1536" height="843" patternUnits="userSpaceOnUse"><image x="0" y="0" width="1536" height="843" xlink:href="img_38.png" /></pattern><clipPath id="10"><path d="M-1.605E-06 0L960 0L960 0L960 539.9999L960 539.9999L-2.673E-06 540" /></clipPath><clipPath id="11"><path d="M-3.149E-06 0L960 0L960 0L960 539.9999L960 539.9999L-3.869E-06 539.9999" /></clipPath><pattern patternTransform="matrix(0.36851 0 -1E-09 -0.28955 198.21 238.25)" id="3131" x="0" y="0" width="1536" height="843" patternUnits="userSpaceOnUse"><image x="0" y="0" width="1536" height="843" xlink:href="img_38.png" /></pattern><clipPath id="12"><path d="M-3.149E-06 0L960 0L960 0L960 539.9999L960 539.9999L-3.869E-06 539.9999" /></clipPath><clipPath id="13"><path d="M-0.00012661 0L960 0L960 0L960 539.9998L960 539.9998L-0.00013033 539.9999" /></clipPath><pattern patternTransform="matrix(0.36851 0 -1E-09 -0.28955 198.21 238.25)" id="3726" x="0" y="0" width="1536" height="843" patternUnits="userSpaceOnUse"><image x="0" y="0" width="1536" height="843" xlink:href="img_38.png" /></pattern><clipPath id="14"><path d="M-0.00012661 0L960 0L960 0L960 539.9998L960 539.9998L-0.00013033 539.9999" /></clipPath><clipPath id="15"><path d="M-4.274E-06 0L960 0L960 0L960 539.9998L960 539.9998L-5.342E-06 539.9999" /></clipPath><pattern patternTransform="matrix(0.36851 0 -1E-09 -0.28955 198.21 238.25)" id="4321" x="0" y="0" width="1536" height="843" patternUnits="userSpaceOnUse"><image x="0" y="0" width="1536" height="843" xlink:href="img_38.png" /></pattern><clipPath id="16"><path d="M-4.274E-06 0L960 0L960 0L960 539.9998L960 539.9998L-5.342E-06 539.9999" /></clipPath><clipPath id="17"><path d="M0 540L960 540L960 540L960 0L960 0L0 0z" /></clipPath><clipPath id="18"><path d="M-3.965E-06 0L960 0L960 0L960 539.9998L960 539.9998L-4.338E-06 540" /></clipPath></defs><g transform="matrix(1.333333 0 0 1.333333 0 0)"><g><g clip-path="url(#1)"><g clip-path="url(#2)"><path transform="matrix(1 0 0 -1 0 540)" d="M0 6.104E-06L960 6.104E-06L960 6.104E-06L960 540L960 540L0 540z" stroke="none" fill="#FFFFFF" fill-rule="evenodd" /></g><g clip-path="url(#3)"><path transform="matrix(1 0 0 -1 0 540)" d="M681.28 235.69L761.79 155.18L761.79 155.18L681.28 74.673L681.28 74.673L681.28 74.673L681.28 74.673L600.77 -5.8372L600.77 -5.8372L520.26 74.673L520.26 74.673L520.26 74.673L520.26 74.673L520.26 74.673L520.26 74.673L439.74 -5.8373L439.74 -5.8373L359.23 74.673L359.23 74.673L359.23 74.673L359.23 74.673L359.23 74.673L359.23 74.673L278.72 -5.8373L278.72 -5.8373L198.21 74.673L198.21 74.673L198.21 74.673L198.21 74.673L278.72 155.18L278.72 155.18L278.72 155.18L278.72 155.18L359.23 235.69L359.23 235.69L439.74 155.18L439.74 155.18L439.74 155.18L439.74 155.18L439.74 155.18L439.74 155.18L520.26 235.69L520.26 235.69L600.77 155.18L600.77 155.18L600.77 155.18z" stroke="none" fill="url(#525)" /></g><g clip-path="url(#4)"><path transform="matrix(1 0 0 -1 0 540)" d="M681.28 235.69L761.79 155.18L761.79 155.18L681.28 74.673L681.28 74.673L681.28 74.673L681.28 74.673L600.77 -5.8372L600.77 -5.8372L520.26 74.673L520.26 74.673L520.26 74.673L520.26 74.673L520.26 74.673L520.26 74.673L439.74 -5.8373L439.74 -5.8373L359.23 74.673L359.23 74.673L359.23 74.673L359.23 74.673L359.23 74.673L359.23 74.673L278.72 -5.8373L278.72 -5.8373L198.21 74.673L198.21 74.673L198.21 74.673L198.21 74.673L278.72 155.18L278.72 155.18L278.72 155.18L278.72 155.18L359.23 235.69L359.23 235.69L439.74 155.18L439.74 155.18L439.74 155.18L439.74 155.18L439.74 155.18L439.74 155.18L520.26 235.69L520.26 235.69L600.77 155.18L600.77 155.18L600.77 155.18z" stroke="none" fill="url(#977)" /></g><g clip-path="url(#5)"><path transform="matrix(1 0 0 -1 0 540)" d="M361.69 238.25L281.18 157.74L281.18 157.74L361.69 77.229L361.69 77.229L442.2 157.74z" stroke="none" fill="url(#1386)" /></g><g clip-path="url(#6)"><path transform="matrix(1 0 0 -1 0 540)" d="M361.69 238.25L281.18 157.74L281.18 157.74L361.69 77.229L361.69 77.229L442.2 157.74z" stroke="#FFFFFF" stroke-width="6" fill="none" /></g><g clip-path="url(#7)"><path transform="matrix(1 0 0 -1 0 540)" d="M281.18 157.74L200.67 77.229L200.67 77.229L281.18 -3.2817L281.18 -3.2817L361.69 77.229z" stroke="none" fill="url(#1964)" /></g><g clip-path="url(#8)"><path transform="matrix(1 0 0 -1 0 540)" d="M281.18 157.74L200.67 77.229L200.67 77.229L281.18 -3.2817L281.18 -3.2817L361.69 77.229z" stroke="#FFFFFF" stroke-width="6" fill="none" /></g><g clip-path="url(#9)"><path transform="matrix(1 0 0 -1 0 540)" d="M522.71 238.25L442.2 157.74L442.2 157.74L522.71 77.229L522.71 77.229L603.22 157.74z" stroke="none" fill="url(#2543)" /></g><g clip-path="url(#10)"><path transform="matrix(1 0 0 -1 0 540)" d="M522.71 238.25L442.2 157.74L442.2 157.74L522.71 77.229L522.71 77.229L603.22 157.74z" stroke="#FFFFFF" stroke-width="6" fill="none" /></g><g clip-path="url(#11)"><path transform="matrix(1 0 0 -1 0 540)" d="M442.2 157.74L361.69 77.229L361.69 77.229L442.2 -3.2816L442.2 -3.2816L522.71 77.229z" stroke="none" fill="url(#3131)" /></g><g clip-path="url(#12)"><path transform="matrix(1 0 0 -1 0 540)" d="M442.2 157.74L361.69 77.229L361.69 77.229L442.2 -3.2816L442.2 -3.2816L522.71 77.229z" stroke="#FFFFFF" stroke-width="6" fill="none" /></g><g clip-path="url(#13)"><path transform="matrix(1 0 0 -1 0 540)" d="M683.73 238.25L603.22 157.74L603.22 157.74L683.73 77.229L683.73 77.229L764.24 157.74z" stroke="none" fill="url(#3726)" /></g><g clip-path="url(#14)"><path transform="matrix(1 0 0 -1 0 540)" d="M683.73 238.25L603.22 157.74L603.22 157.74L683.73 77.229L683.73 77.229L764.24 157.74z" stroke="#FFFFFF" stroke-width="6" fill="none" /></g><g clip-path="url(#15)"><path transform="matrix(1 0 0 -1 0 540)" d="M603.22 157.74L522.71 77.229L522.71 77.229L603.22 -3.2815L603.22 -3.2815L683.73 77.229z" stroke="none" fill="url(#4321)" /></g><g clip-path="url(#16)"><path transform="matrix(1 0 0 -1 0 540)" d="M603.22 157.74L522.71 77.229L522.71 77.229L603.22 -3.2815L603.22 -3.2815L683.73 77.229z" stroke="#FFFFFF" stroke-width="6" fill="none" /></g><g clip-path="url(#17)"><g transform="matrix(0.3600912 0 0 0.3598176 243.24 0)"><g transform="matrix(1 0 0 1 0 0)"><image x="0" y="0" xlink:href="img_40.png" width="1315" height="658" /></g></g></g><g clip-path="url(#18)"><path transform="matrix(1 0 0 -1 0 540)" d="M480 739.58L679.58 540L679.58 540L480 340.42L480 340.42L280.42 540z" stroke="none" fill="none" /></g></g></g></g></svg>