<svg xmlns="http://www.w3.org/2000/svg" xmlns:xlink="http://www.w3.org/1999/xlink" id="body_6" preserveAspectRatio="xMinYMin meet" viewBox="0 0 1280 720"><defs><clipPath id="1"><path d="M0 540L0 0L0 0L960 0L960 0L960 540L960 540L0 540z" /></clipPath><clipPath id="2"><path d="M0 539.9999L960 539.9999L960 539.9999L960 -0.0001220703L960 -0.0001220703L0 -0.0001220703z" /></clipPath><clipPath id="3"><path d="M0 540L960 540L960 540L960 0L960 0L0 0z" /></clipPath><clipPath id="4"><path d="M-2.38E-07 0L960 0L960 0L960 540.0001L960 540.0001L-8.31E-07 540" /></clipPath><clipPath id="5"><path d="M0 540L960 540L960 540L960 0L960 0L0 0z" /></clipPath><clipPath id="6"><path d="M-1.31E-07 0L960 0L960 0L960 540L960 540L-4.32E-07 540" /></clipPath><clipPath id="7"><path d="M-3.634E-06 540L960 540L960 540L960 0L960 0L-3.634E-06 0z" /></clipPath><clipPath id="8"><path d="M-2.19E-07 0L960 0L960 0L960 540L960 540L-4.219E-06 540" /></clipPath><clipPath id="9"><path d="M0 540L960 540L960 540L960 0L960 0L0 0z" /></clipPath><pattern patternTransform="matrix(0.73974 0 0 -0.73926 32.742 370.29)" id="1348" x="0" y="0" width="601" height="325" patternUnits="userSpaceOnUse"><image x="0" y="0" width="601" height="325" xlink:href="img_51.png" /></pattern></defs><g transform="matrix(1.333333 0 0 1.333333 0 0)"><g><g clip-path="url(#1)"><g clip-path="url(#2)"><path transform="matrix(1 0 0 -1 0 540)" d="M0 6.104E-06L960 6.104E-06L960 6.104E-06L960 540L960 540L0 540z" stroke="none" fill="#FFFFFF" fill-rule="evenodd" /></g><g clip-path="url(#3)"><g transform="matrix(0.3596364 0 0 0.3603809 9.33E-07 0)"><g transform="matrix(1 0 0 1 0 0)"><image x="0" y="0" xlink:href="img_42.png" width="330" height="315" /></g></g></g><g clip-path="url(#4)"><path transform="matrix(1 0 0 -1 0 540)" d="M46.742 461.96L83.123 500.33L83.123 500.33L44.749 536.71L44.749 536.71L8.3674 498.34z" stroke="none" fill="none" /></g><g clip-path="url(#5)"><g transform="matrix(0.36 0 0 0.3595986 26.28 0)"><g transform="matrix(1 0 0 1 0 0)"><image x="0" y="0" xlink:href="img_43.png" width="362" height="299" /></g></g></g><g clip-path="url(#6)"><path transform="matrix(1 0 0 -1 0 540)" d="M92.212 467.98L121.12 498.48L121.12 498.48L90.628 527.39L90.628 527.39L61.717 496.89z" stroke="none" fill="none" /></g><g clip-path="url(#7)"><g transform="matrix(0.3274108 0 0 0.3274108 862.76 -0.0009765625)"><g transform="matrix(1 0 0 1 0 0)"><image x="0" y="0" xlink:href="img_44.png" width="297" height="297" /></g></g></g><path transform="matrix(1 0 0 -1 0 540)" d="M505.92 130.03L566.96 130.03L566.96 130.03L566.96 180.246L566.96 180.246L505.92 180.246z" stroke="none" fill="#92D050" fill-rule="evenodd" /><path transform="matrix(1 0 0 -1 0 540)" d="M552.08 145.31C 553.16 145.4 554.07 146.05 554.5 146.99C 556.03 146.56 557.65 145.79 557.65 144.46C 557.65 141.91 557.65 140.69 557.65 140.69C 552.48 140.69 552.48 140.69 552.48 140.69C 553.11 141.63 553.11 141.63 553.11 141.63L553.11 141.63L552.08 145.31z" stroke="none" fill="#FFFFFF" fill-rule="evenodd" /><path transform="matrix(1 0 0 -1 0 540)" d="M549.24 146.99C 549.67 146.05 550.57 145.4 551.65 145.31C 550.63 141.63 550.63 141.63 550.63 141.63C 551.26 140.69 551.26 140.69 551.26 140.69C 548.73 140.69 548.73 140.69 548.73 140.69C 548.73 141.85 548.73 143.33 548.73 145.14C 548.73 145.71 548.59 146.22 548.33 146.7C 548.62 146.82 548.93 146.9 549.24 146.99z" stroke="none" fill="#FFFFFF" fill-rule="evenodd" /><path transform="matrix(1 0 0 -1 0 540)" d="M554.47 149.94C 554.47 150.68 554.12 151.33 553.61 151.78C 553.76 151.39 553.84 150.93 553.84 150.51C 553.84 149.31 553.27 148.26 552.42 147.61C 553.59 147.75 554.47 148.75 554.47 149.94zM551.8 146.59C 550.01 146.59 548.56 148.04 548.56 149.82C 548.56 151.61 550.01 153.09 551.8 153.09C 553.59 153.09 555.03 151.61 555.03 149.82C 555.03 148.04 553.59 146.59 551.8 146.59z" stroke="none" fill="#FFFFFF" fill-rule="evenodd" /><path transform="matrix(1 0 0 -1 0 540)" d="M542.01 149.31C 544.79 148.55 547.77 147.18 547.77 144.71C 547.77 140.06 547.77 137.79 547.77 137.79C 538.29 137.79 538.29 137.79 538.29 137.79C 539.4 139.55 539.4 139.55 539.4 139.55C 537.55 146.27 537.55 146.27 537.55 146.27C 539.51 146.42 541.19 147.61 542.01 149.31z" stroke="none" fill="#FFFFFF" fill-rule="evenodd" /><path transform="matrix(1 0 0 -1 0 540)" d="M526.57 137.79C 526.57 137.79 526.57 140.06 526.57 144.71C 526.57 147.18 529.55 148.55 532.33 149.31C 533.15 147.61 534.83 146.42 536.79 146.27C 534.94 139.55 534.94 139.55 534.94 139.55C 536.05 137.79 536.05 137.79 536.05 137.79L536.05 137.79L526.57 137.79z" stroke="none" fill="#FFFFFF" fill-rule="evenodd" /><path transform="matrix(1 0 0 -1 0 540)" d="M536.13 161.63C 534.77 161.46 533.55 160.92 532.53 160.1C 532.24 160.47 532.24 160.47 532.24 160.47C 542.15 168.42 542.15 168.42 542.15 168.42C 545.02 163.36 545.02 163.36 545.02 163.36C 549.84 167.48 549.84 167.48 549.84 167.48C 545.98 169.69 545.98 169.69 545.98 169.69C 557.34 172.87 557.34 172.87 557.34 172.87C 553.36 161.78 553.36 161.78 553.36 161.78C 551.03 166.49 551.03 166.49 551.03 166.49C 544.59 161.01 544.59 161.01 544.59 161.01C 541.72 166.12 541.72 166.12 541.72 166.12L541.72 166.12L536.13 161.63z" stroke="none" fill="#FFFFFF" fill-rule="evenodd" /><path transform="matrix(1 0 0 -1 0 540)" d="M530.32 156.95C 528.13 155.19 528.13 155.19 528.13 155.19C 525.52 160.07 525.52 160.07 525.52 160.07C 518.03 153.04 518.03 153.04 518.03 153.04C 517.55 152.58 516.92 152.44 516.64 152.75C 516.36 153.06 516.5 153.66 516.98 154.14C 525.95 162.51 525.95 162.51 525.95 162.51C 528.61 157.52 528.61 157.52 528.61 157.52C 532.25 160.47 532.25 160.47 532.25 160.47C 532.53 160.1 532.53 160.1 532.53 160.1C 531.54 159.28 530.74 158.2 530.32 156.95z" stroke="none" fill="#FFFFFF" fill-rule="evenodd" /><path transform="matrix(1 0 0 -1 0 540)" d="M537.04 148.6C 533.75 148.6 531.11 151.24 531.11 154.54C 531.11 157.8 533.75 160.47 537.04 160.47C 540.33 160.47 542.97 157.8 542.97 154.54C 542.97 151.24 540.33 148.6 537.04 148.6zM538.18 150.48C 540.31 150.76 541.92 152.55 541.92 154.77C 541.92 156.1 541.33 157.29 540.36 158.09C 540.36 158.09 540.36 158.09 540.36 158.09C 540.36 158.09 540.36 158.09 540.36 158.09C 540.62 157.38 540.79 156.58 540.79 155.76C 540.79 153.6 539.77 151.7 538.18 150.48z" stroke="none" fill="#FFFFFF" fill-rule="evenodd" /><path transform="matrix(1 0 0 -1 0 540)" d="M522.63 145.26C 523.71 145.31 524.61 145.99 525.07 146.9C 525.35 146.82 525.66 146.73 525.95 146.62C 525.69 146.16 525.58 145.62 525.58 145.06C 525.58 143.27 525.58 141.79 525.58 140.63C 523.02 140.63 523.02 140.63 523.02 140.63C 523.65 141.57 523.65 141.57 523.65 141.57L523.65 141.57L522.63 145.26z" stroke="none" fill="#FFFFFF" fill-rule="evenodd" /><path transform="matrix(1 0 0 -1 0 540)" d="M522.2 145.26C 521.17 141.57 521.17 141.57 521.17 141.57C 521.8 140.63 521.8 140.63 521.8 140.63C 516.63 140.63 516.63 140.63 516.63 140.63C 516.63 140.63 516.63 141.85 516.63 144.4C 516.63 145.74 518.25 146.5 519.78 146.9C 520.21 145.99 521.12 145.31 522.2 145.26z" stroke="none" fill="#FFFFFF" fill-rule="evenodd" /><path transform="matrix(1 0 0 -1 0 540)" d="M522.48 146.51C 520.69 146.51 519.25 147.98 519.25 149.77C 519.25 151.56 520.69 153 522.48 153C 524.27 153 525.72 151.56 525.72 149.77C 525.72 147.98 524.27 146.51 522.48 146.51zM520.67 151.7C 520.15 151.27 519.81 150.62 519.81 149.88C 519.81 148.69 520.69 147.7 521.86 147.56C 521.01 148.21 520.44 149.26 520.44 150.42C 520.44 150.88 520.52 151.3 520.67 151.7C 520.67 151.7 520.67 151.7 520.67 151.7z" stroke="none" fill="#FFFFFF" fill-rule="evenodd" /><path transform="matrix(1 0 0 -1 0 540)" d="M577.99 130.03L639.03 130.03L639.03 130.03L639.03 180.246L639.03 180.246L577.99 180.246z" stroke="none" fill="#00C898" fill-rule="evenodd" /><path transform="matrix(1 0 0 -1 0 540)" d="M618.62 143.87C 617.12 142.77 615.37 142.03 613.44 141.71C 613.44 139.65 613.44 139.65 613.44 139.65C 611.51 139.65 611.51 139.65 611.51 139.65C 611.51 142.66 611.51 142.66 611.51 142.66C 617.62 142.66 622.56 147.6 622.56 153.67C 622.56 159.77 617.62 164.7 611.51 164.7C 611.51 167.71 611.51 167.71 611.51 167.71C 613.44 167.71 613.44 167.71 613.44 167.71C 613.44 165.63 613.44 165.63 613.44 165.63C 615.37 165.34 617.12 164.57 618.62 163.49C 620.1 164.94 620.1 164.94 620.1 164.94C 622.8 162.25 622.8 162.25 622.8 162.25C 621.34 160.77 621.34 160.77 621.34 160.77C 622.43 159.27 623.19 157.52 623.48 155.6C 625.57 155.6 625.57 155.6 625.57 155.6C 625.57 151.77 625.57 151.77 625.57 151.77C 623.48 151.77 623.48 151.77 623.48 151.77C 623.19 149.84 622.43 148.07 621.34 146.59C 622.8 145.12 622.8 145.12 622.8 145.12C 620.1 142.4 620.1 142.4 620.1 142.4L620.1 142.4L618.62 143.87z" stroke="none" fill="#FFFFFF" fill-rule="evenodd" /><path transform="matrix(1 0 0 -1 0 540)" d="M617.22 152.77C 617.06 151.87 616.69 151.02 616.19 150.31C 616.88 149.6 616.88 149.6 616.88 149.6C 615.58 148.33 615.58 148.33 615.58 148.33C 614.9 149.02 614.9 149.02 614.9 149.02C 614.18 148.49 613.34 148.15 612.44 147.99C 612.44 147.01 612.44 147.01 612.44 147.01C 611.51 147.01 611.51 147.01 611.51 147.01C 611.51 148.44 611.51 148.44 611.51 148.44C 614.42 148.44 616.77 150.79 616.77 153.66C 616.77 156.57 614.42 158.89 611.51 158.89C 611.51 160.34 611.51 160.34 611.51 160.34C 612.44 160.34 612.44 160.34 612.44 160.34C 612.44 159.34 612.44 159.34 612.44 159.34C 613.34 159.21 614.18 158.84 614.9 158.34C 615.58 159.02 615.58 159.02 615.58 159.02C 616.88 157.73 616.88 157.73 616.88 157.73C 616.19 157.04 616.19 157.04 616.19 157.04C 616.69 156.33 617.06 155.48 617.22 154.59C 618.2 154.59 618.2 154.59 618.2 154.59C 618.2 152.77 618.2 152.77 618.2 152.77L618.2 152.77L617.22 152.77z" stroke="none" fill="#FFFFFF" fill-rule="evenodd" /><path transform="matrix(1 0 0 -1 0 540)" d="M606.47 153.68C 606.47 155.31 607.79 156.63 609.41 156.63C 611.03 156.63 612.34 155.31 612.34 153.68C 612.34 152.06 611.03 150.74 609.41 150.74C 607.79 150.74 606.47 152.06 606.47 153.68z" stroke="none" fill="#FFFFFF" fill-rule="evenodd" /><path transform="matrix(1 0 0 -1 0 540)" d="M607.98 164.1C 609.41 164.1 609.41 164.1 609.41 164.1C 609.41 161.85 609.41 161.85 609.41 161.85C 604.89 161.85 601.22 158.21 601.22 153.67C 601.22 149.15 604.89 145.48 609.41 145.48C 609.41 143.23 609.41 143.23 609.41 143.23C 607.98 143.23 607.98 143.23 607.98 143.23C 607.98 144.79 607.98 144.79 607.98 144.79C 606.56 145 605.26 145.58 604.13 146.37C 603.04 145.29 603.04 145.29 603.04 145.29C 601.04 147.3 601.04 147.3 601.04 147.3C 602.12 148.41 602.12 148.41 602.12 148.41C 601.3 149.52 600.75 150.81 600.51 152.24C 598.98 152.24 598.98 152.24 598.98 152.24C 598.98 155.09 598.98 155.09 598.98 155.09C 600.51 155.09 600.51 155.09 600.51 155.09C 600.75 156.52 601.3 157.84 602.12 158.95C 601.04 160.06 601.04 160.06 601.04 160.06C 603.04 162.07 603.04 162.07 603.04 162.07C 604.13 160.98 604.13 160.98 604.13 160.98C 605.26 161.78 606.56 162.36 607.98 162.57L607.98 162.57L607.98 164.1z" stroke="none" fill="#FFFFFF" fill-rule="evenodd" /><path transform="matrix(1 0 0 -1 0 540)" d="M593.35 156.15C 593.74 158.6 594.69 160.85 596.09 162.77C 594.22 164.68 594.22 164.68 594.22 164.68C 597.71 168.13 597.71 168.13 597.71 168.13C 599.58 166.26 599.58 166.26 599.58 166.26C 601.51 167.66 603.78 168.64 606.24 169.01C 606.24 171.67 606.24 171.67 606.24 171.67C 608.69 171.67 608.69 171.67 608.69 171.67C 608.69 167.82 608.69 167.82 608.69 167.82C 600.87 167.82 594.56 161.48 594.56 153.66C 594.56 145.87 600.87 139.54 608.69 139.54C 608.69 135.68 608.69 135.68 608.69 135.68C 606.24 135.68 606.24 135.68 606.24 135.68C 606.24 138.32 606.24 138.32 606.24 138.32C 603.78 138.72 601.51 139.69 599.58 141.09C 597.71 139.19 597.71 139.19 597.71 139.19C 594.22 142.68 594.22 142.68 594.22 142.68C 596.09 144.58 596.09 144.58 596.09 144.58C 594.69 146.51 593.74 148.75 593.35 151.21C 590.68 151.21 590.68 151.21 590.68 151.21C 590.68 156.15 590.68 156.15 590.68 156.15L590.68 156.15L593.35 156.15z" stroke="none" fill="#FFFFFF" fill-rule="evenodd" /><path transform="matrix(1 0 0 -1 0 540)" d="M650.06 130.03L711.1 130.03L711.1 130.03L711.1 180.246L711.1 180.246L650.06 180.246z" stroke="none" fill="#04B5EC" fill-rule="evenodd" /><path transform="matrix(1 0 0 -1 0 540)" d="M662.14 137.28L666.7823 137.28L666.7823 137.28L666.7823 144.7587L666.7823 144.7587L662.14 144.7587z" stroke="none" fill="#FFFFFF" fill-rule="evenodd" /><path transform="matrix(1 0 0 -1 0 540)" d="M667.27 144.15C 667.27 137.97 667.27 137.97 667.27 137.97C 667.27 137.97 673.26 137.73 675.19 137.19C 675.19 137.19 679.86 136.29 685.28 137.19C 687.12 137.49 691.39 139.54 691.39 139.54C 696.21 143.25 696.21 143.25 696.21 143.25C 696.21 143.25 697.24 145.05 698.23 147.16C 698.5 147.7 699.01 148.67 698.74 149.27C 698.32 150.2 697.15 149.81 696.54 149.21C 694.32 145.38 694.32 145.38 694.32 145.38C 689.04 142.46 689.04 142.46 689.04 142.46C 689.04 142.46 686 142.46 683.77 142.46C 681.51 142.46 680.73 143.91 680.73 143.91C 680.73 143.91 682.18 143.91 684.44 143.91C 686.66 143.91 687.36 144.36 687.36 145.96C 687.36 147.52 685.22 147.19 685.22 147.19C 683.41 147.19 683.41 147.19 683.41 147.19C 683.41 147.19 679.5 147.19 678.11 147.19C 676.76 147.19 675.97 146.62 675.97 146.62C 671.73 144.72 671.73 144.72 671.73 144.72C 671.73 144.72 670.25 144.15 668.74 144.15C 667.27 144.15 667.27 144.15 667.27 144.15z" stroke="none" fill="#FFFFFF" fill-rule="evenodd" /><path transform="matrix(1 0 0 -1 0 540)" d="M673.08 161.56L668.5 152.25L668.5 152.25L673.14 153.73L673.14 153.73L677.66 152.25L677.66 152.25L673.08 161.56z" stroke="none" fill="#FFFFFF" fill-rule="evenodd" /><path transform="matrix(1 0 0 -1 0 540)" d="M671.69 148.55L674.4881 148.55L674.4881 148.55L674.4881 149.3895L674.4881 149.3895L671.69 149.3895z" stroke="none" fill="#FFFFFF" fill-rule="evenodd" /><path transform="matrix(1 0 0 -1 0 540)" d="M671.69 149.96L674.4881 149.96L674.4881 149.96L674.4881 150.9012L674.4881 150.9012L671.69 150.9012z" stroke="none" fill="#FFFFFF" fill-rule="evenodd" /><path transform="matrix(1 0 0 -1 0 540)" d="M671.69 152.49L671.69 151.47L671.69 151.47L674.49 151.47L674.49 151.47L674.49 152.53L674.49 152.53L673.17 152.95L673.17 152.95L671.69 152.49z" stroke="none" fill="#FFFFFF" fill-rule="evenodd" /><path transform="matrix(1 0 0 -1 0 540)" d="M682.39 166.6L677.81 157.29L677.81 157.29L682.44 158.76L682.44 158.76L686.96 157.29L686.96 157.29L682.39 166.6z" stroke="none" fill="#FFFFFF" fill-rule="evenodd" /><path transform="matrix(1 0 0 -1 0 540)" d="M681 148.57L683.7981 148.57L683.7981 148.57L683.7981 149.384L683.7981 149.384L681 149.384z" stroke="none" fill="#FFFFFF" fill-rule="evenodd" /><path transform="matrix(1 0 0 -1 0 540)" d="M681 149.96L683.7981 149.96L683.7981 149.96L683.7981 150.9012L683.7981 150.9012L681 150.9012z" stroke="none" fill="#FFFFFF" fill-rule="evenodd" /><path transform="matrix(1 0 0 -1 0 540)" d="M681 151.47L683.7981 151.47L683.7981 151.47L683.7981 152.4366L683.7981 152.4366L681 152.4366z" stroke="none" fill="#FFFFFF" fill-rule="evenodd" /><path transform="matrix(1 0 0 -1 0 540)" d="M681 153.01L683.7981 153.01L683.7981 153.01L683.7981 154.002L683.7981 154.002L681 154.002z" stroke="none" fill="#FFFFFF" fill-rule="evenodd" /><path transform="matrix(1 0 0 -1 0 540)" d="M681 154.54L683.7981 154.54L683.7981 154.54L683.7981 155.5066L683.7981 155.5066L681 155.5066z" stroke="none" fill="#FFFFFF" fill-rule="evenodd" /><path transform="matrix(1 0 0 -1 0 540)" d="M681 157.53L681 156.08L681 156.08L683.8 156.08L683.8 156.08L683.8 157.55L683.8 157.55L682.48 158.01L682.48 158.01L681 157.53z" stroke="none" fill="#FFFFFF" fill-rule="evenodd" /><path transform="matrix(1 0 0 -1 0 540)" d="M691.24 173.94L686.66 164.64L686.66 164.64L691.29 166.11L691.29 166.11L695.82 164.64L695.82 164.64L691.24 173.94z" stroke="none" fill="#FFFFFF" fill-rule="evenodd" /><path transform="matrix(1 0 0 -1 0 540)" d="M689.82 148.57L692.6563 148.57L692.6563 148.57L692.6563 149.7147L692.6563 149.7147L689.82 149.7147z" stroke="none" fill="#FFFFFF" fill-rule="evenodd" /><path transform="matrix(1 0 0 -1 0 540)" d="M689.82 150.29L692.6563 150.29L692.6563 150.29L692.6563 151.1421L692.6563 151.1421L689.82 151.1421z" stroke="none" fill="#FFFFFF" fill-rule="evenodd" /><path transform="matrix(1 0 0 -1 0 540)" d="M689.82 151.72L692.6563 151.72L692.6563 151.72L692.6563 152.6866L692.6563 152.6866L689.82 152.6866z" stroke="none" fill="#FFFFFF" fill-rule="evenodd" /><path transform="matrix(1 0 0 -1 0 540)" d="M689.82 153.26L692.6563 153.26L692.6563 153.26L692.6563 154.2139L692.6563 154.2139L689.82 154.2139z" stroke="none" fill="#FFFFFF" fill-rule="evenodd" /><path transform="matrix(1 0 0 -1 0 540)" d="M689.82 154.78L692.6563 154.78L692.6563 154.78L692.6563 155.7466L692.6563 155.7466L689.82 155.7466z" stroke="none" fill="#FFFFFF" fill-rule="evenodd" /><path transform="matrix(1 0 0 -1 0 540)" d="M689.82 156.32L692.6563 156.32L692.6563 156.32L692.6563 157.2485L692.6563 157.2485L689.82 157.2485z" stroke="none" fill="#FFFFFF" fill-rule="evenodd" /><path transform="matrix(1 0 0 -1 0 540)" d="M689.82 157.82L692.6563 157.82L692.6563 157.82L692.6563 158.7866L692.6563 158.7866L689.82 158.7866z" stroke="none" fill="#FFFFFF" fill-rule="evenodd" /><path transform="matrix(1 0 0 -1 0 540)" d="M689.82 159.36L692.6563 159.36L692.6563 159.36L692.6563 160.352L692.6563 160.352L689.82 160.352z" stroke="none" fill="#FFFFFF" fill-rule="evenodd" /><path transform="matrix(1 0 0 -1 0 540)" d="M689.82 160.92L692.6563 160.92L692.6563 160.92L692.6563 161.8612L692.6563 161.8612L689.82 161.8612z" stroke="none" fill="#FFFFFF" fill-rule="evenodd" /><path transform="matrix(1 0 0 -1 0 540)" d="M689.82 164.88L689.82 162.44L689.82 162.44L692.65 162.44L692.65 162.44L692.65 164.91L692.65 164.91L691.29 165.36L691.29 165.36L689.82 164.88z" stroke="none" fill="#FFFFFF" fill-rule="evenodd" /><path transform="matrix(1 0 0 -1 0 540)" d="M724.39 129.22L785.43 129.22L785.43 129.22L785.43 179.436L785.43 179.436L724.39 179.436z" stroke="none" fill="#017AD3" fill-rule="evenodd" /><g clip-path="url(#8)"><path transform="matrix(1 0 0 -1 0 540)" d="M766.96 158.36C 766.53 158.53 763.45 160.04 758.73 159.07C 757.87 158.87 756.57 158.3 755.18 157.58C 757.21 155.56 759.2 154.84 762.16 155.53C 764.28 155.9 765.99 156.95 766.96 158.36zM777.93 158.16C 777.93 158.16 776.96 154.52 767.59 152.33C 767.47 152.3 767.34 152.27 767.22 152.24C 764.8 150.36 756.39 144.05 754.93 143.05C 752.7 141.48 749.74 140.79 743.3 139.94C 751.23 147.19 751.23 147.19 751.23 147.19C 751.92 148.14 752.42 148.78 752.06 149.22C 744.05 148.41 734.55 147.9 734.55 147.9C 728.54 156.36 728.54 156.36 728.54 156.36C 728.54 156.36 729.65 156.62 730.51 156.82C 731.87 157.14 733.04 157.15 734.41 156.29C 735.17 155.81 736.27 155.01 737.76 154.18C 740.39 152.42 742.11 152.29 744.86 153.86C 749.01 156.14 754.56 159.68 757.89 160.46C 763.93 161.87 767.84 159.62 767.84 159.62C 767.84 159.62 775.87 160.84 777.29 160.91C 777.38 160.53 777.93 158.16 777.93 158.16zM778.8 161.13C 779.35 158.76 779.35 158.76 779.35 158.76C 780.56 159.17 781.43 159.9 781.31 160.4C 781.19 160.9 780.06 161.29 778.8 161.13zM768.01 161.11C 768.38 161.2 768.87 161.31 769.52 161.33C 769.68 161.76 769.75 162.57 769.76 163.62C 769.94 165.11 768.77 165.63 767.61 165.62C 765.97 165.37 764.96 165.26 764.96 165.26C 763.69 162.34 763.69 162.34 763.69 162.34C 765.84 162.05 767.28 161.46 768.01 161.11zM737.84 145.51C 735.6 143.93 731.27 143.58 731.27 143.58C 734.53 146.31 734.53 146.31 734.53 146.31C 734.65 146.34 734.65 146.34 734.65 146.34C 734.65 146.34 736.59 146.4 739.27 146.63C 738.95 146.29 738.4 145.9 737.84 145.51z" stroke="none" fill="#FFFFFF" fill-rule="evenodd" /></g><g clip-path="url(#9)"><g transform="matrix(0.3599034 0 0 0.3603279 31.56 409.1999)"><g transform="matrix(1 0 0 1 0 0)"><image x="0" y="0" xlink:href="img_50.png" width="1242" height="366" /></g></g></g><path transform="matrix(1 0 0 -1 0 540)" d="M32.742 349.64C 32.742 361.05 41.986 370.29 53.39 370.29L53.39 370.29L456.68 370.29C 468.08 370.29 477.33 361.05 477.33 349.64L477.33 349.64L477.33 150.68C 477.33 139.28 468.08 130.03 456.68 130.03L456.68 130.03L53.39 130.03C 41.986 130.03 32.742 139.28 32.742 150.68z" stroke="none" fill="#EDEDED" fill-rule="evenodd" /><path transform="matrix(1 0 0 -1 0 540)" d="M32.742 349.64C 32.742 361.05 41.986 370.29 53.39 370.29L53.39 370.29L456.68 370.29C 468.08 370.29 477.33 361.05 477.33 349.64L477.33 349.64L477.33 150.68C 477.33 139.28 468.08 130.03 456.68 130.03L456.68 130.03L53.39 130.03C 41.986 130.03 32.742 139.28 32.742 150.68z" stroke="none" fill="url(#1348)" /></g></g></g></svg>