<svg xmlns="http://www.w3.org/2000/svg" xmlns:xlink="http://www.w3.org/1999/xlink" id="body_5" preserveAspectRatio="xMinYMin meet" viewBox="0 0 1280 720"><defs><clipPath id="1"><path d="M0 540L0 0L0 0L960 0L960 0L960 540L960 540L0 540z" /></clipPath><clipPath id="2"><path d="M0 539.9999L960 539.9999L960 539.9999L960 -0.0001220703L960 -0.0001220703L0 -0.0001220703z" /></clipPath><clipPath id="3"><path d="M0 540L960 540L960 540L960 0L960 0L0 0z" /></clipPath><clipPath id="4"><path d="M-2.38E-07 0L960 0L960 0L960 540.0001L960 540.0001L-8.31E-07 540" /></clipPath><clipPath id="5"><path d="M0 540L960 540L960 540L960 0L960 0L0 0z" /></clipPath><clipPath id="6"><path d="M-1.31E-07 0L960 0L960 0L960 540L960 540L-4.32E-07 540" /></clipPath><clipPath id="7"><path d="M-3.634E-06 540L960 540L960 540L960 0L960 0L-3.634E-06 0z" /></clipPath><clipPath id="8"><path d="M0 540L960 540L960 540L960 0L960 0L0 0z" /></clipPath><pattern patternTransform="matrix(0.37838 0 0 -0.3777 116.95 395.47)" id="1196" x="0" y="0" width="554" height="370" patternUnits="userSpaceOnUse"><image x="0" y="0" width="554" height="370" xlink:href="img_46.png" /></pattern><clipPath id="9"><path d="M0 540L960 540L960 540L960 0L960 0L0 0z" /></clipPath><pattern patternTransform="matrix(0.37838 0 0 -0.3777 116.95 228.27)" id="1579" x="0" y="0" width="554" height="370" patternUnits="userSpaceOnUse"><image x="0" y="0" width="554" height="370" xlink:href="img_48.png" /></pattern></defs><g transform="matrix(1.333333 0 0 1.333333 0 0)"><g><g clip-path="url(#1)"><g clip-path="url(#2)"><path transform="matrix(1 0 0 -1 0 540)" d="M0 6.104E-06L960 6.104E-06L960 6.104E-06L960 540L960 540L0 540z" stroke="none" fill="#FFFFFF" fill-rule="evenodd" /></g><g clip-path="url(#3)"><g transform="matrix(0.3596364 0 0 0.3603809 9.33E-07 0)"><g transform="matrix(1 0 0 1 0 0)"><image x="0" y="0" xlink:href="img_42.png" width="330" height="315" /></g></g></g><g clip-path="url(#4)"><path transform="matrix(1 0 0 -1 0 540)" d="M46.742 461.96L83.123 500.33L83.123 500.33L44.749 536.71L44.749 536.71L8.3674 498.34z" stroke="none" fill="none" /></g><g clip-path="url(#5)"><g transform="matrix(0.36 0 0 0.3595986 26.28 0)"><g transform="matrix(1 0 0 1 0 0)"><image x="0" y="0" xlink:href="img_43.png" width="362" height="299" /></g></g></g><g clip-path="url(#6)"><path transform="matrix(1 0 0 -1 0 540)" d="M92.212 467.98L121.12 498.48L121.12 498.48L90.628 527.39L90.628 527.39L61.717 496.89z" stroke="none" fill="none" /></g><g clip-path="url(#7)"><g transform="matrix(0.3274108 0 0 0.3274108 862.76 -0.0009765625)"><g transform="matrix(1 0 0 1 0 0)"><image x="0" y="0" xlink:href="img_44.png" width="297" height="297" /></g></g></g><g clip-path="url(#8)"><g transform="matrix(0.359802 0 0 0.3597087 114.84 142.44)"><g transform="matrix(1 0 0 1 0 0)"><image x="0" y="0" xlink:href="img_45.png" width="606" height="412" /></g></g></g><path transform="matrix(1 0 0 -1 0 540)" d="M116.95 372.18C 116.95 385.04 127.38 395.47 140.24 395.47L140.24 395.47L303.28 395.47C 316.14 395.47 326.57 385.04 326.57 372.18L326.57 372.18L326.57 279.01C 326.57 266.15 316.14 255.72 303.28 255.72L303.28 255.72L140.24 255.72C 127.38 255.72 116.95 266.15 116.95 279.01z" stroke="none" fill="url(#1196)" /><g clip-path="url(#9)"><g transform="matrix(0.359802 0 0 0.3597087 114.84 309.6)"><g transform="matrix(1 0 0 1 0 0)"><image x="0" y="0" xlink:href="img_47.png" width="606" height="412" /></g></g></g><path transform="matrix(1 0 0 -1 0 540)" d="M116.95 204.98C 116.95 217.84 127.38 228.27 140.24 228.27L140.24 228.27L303.28 228.27C 316.14 228.27 326.57 217.84 326.57 204.98L326.57 204.98L326.57 111.81C 326.57 98.949 316.14 88.521 303.28 88.521L303.28 88.521L140.24 88.521C 127.38 88.521 116.95 98.949 116.95 111.81z" stroke="none" fill="url(#1579)" /><path transform="matrix(1 0 0 -1 0 540)" d="M377.7 249.71C 377.7 253.51 380.78 256.59 384.57 256.59L384.57 256.59L468.32 256.59C 472.12 256.59 475.2 253.51 475.2 249.71L475.2 249.71L475.2 222.21C 475.2 218.42 472.12 215.34 468.32 215.34L468.32 215.34L384.57 215.34C 380.78 215.34 377.7 218.42 377.7 222.21z" stroke="none" fill="none" /><path transform="matrix(1 0 0 -1 0 540)" d="M495.2 249.71C 495.2 253.51 498.28 256.59 502.08 256.59L502.08 256.59L585.83 256.59C 589.62 256.59 592.7 253.51 592.7 249.71L592.7 249.71L592.7 222.21C 592.7 218.42 589.62 215.34 585.83 215.34L585.83 215.34L502.08 215.34C 498.28 215.34 495.2 218.42 495.2 222.21z" stroke="none" fill="none" /><path transform="matrix(1 0 0 -1 0 540)" d="M612.71 249.71C 612.71 253.51 615.78 256.59 619.58 256.59L619.58 256.59L703.33 256.59C 707.13 256.59 710.21 253.51 710.21 249.71L710.21 249.71L710.21 222.21C 710.21 218.42 707.13 215.34 703.33 215.34L703.33 215.34L619.58 215.34C 615.78 215.34 612.71 218.42 612.71 222.21z" stroke="none" fill="none" /><path transform="matrix(1 0 0 -1 0 540)" d="M730.21 249.71C 730.21 253.51 733.29 256.59 737.08 256.59L737.08 256.59L820.83 256.59C 824.63 256.59 827.71 253.51 827.71 249.71L827.71 249.71L827.71 222.21C 827.71 218.42 824.63 215.34 820.83 215.34L820.83 215.34L737.08 215.34C 733.29 215.34 730.21 218.42 730.21 222.21z" stroke="none" fill="none" /><path transform="matrix(1 0 0 -1 0 540)" d="M840.13 249.71C 840.13 253.51 843.21 256.59 847.01 256.59L847.01 256.59L930.76 256.59C 934.55 256.59 937.63 253.51 937.63 249.71L937.63 249.71L937.63 222.21C 937.63 218.42 934.55 215.34 930.76 215.34L930.76 215.34L847.01 215.34C 843.21 215.34 840.13 218.42 840.13 222.21z" stroke="none" fill="none" /></g></g></g></svg>