<svg xmlns="http://www.w3.org/2000/svg" xmlns:xlink="http://www.w3.org/1999/xlink" id="body_9" preserveAspectRatio="xMinYMin meet" viewBox="0 0 1280 720"><defs><clipPath id="1"><path d="M0 540L0 0L0 0L960 0L960 0L960 540L960 540L0 540z" /></clipPath><clipPath id="2"><path d="M0 539.9999L960 539.9999L960 539.9999L960 -0.0001220703L960 -0.0001220703L0 -0.0001220703z" /></clipPath><clipPath id="3"><path d="M0 540L960 540L960 540L960 0L960 0L0 0z" /></clipPath><clipPath id="4"><path d="M-2.38E-07 0L960 0L960 0L960 540.0001L960 540.0001L-8.31E-07 540" /></clipPath><clipPath id="5"><path d="M0 540L960 540L960 540L960 0L960 0L0 0z" /></clipPath><clipPath id="6"><path d="M-1.31E-07 0L960 0L960 0L960 540L960 540L-4.32E-07 540" /></clipPath><clipPath id="7"><path d="M-3.634E-06 540L960 540L960 540L960 0L960 0L-3.634E-06 0z" /></clipPath><clipPath id="8"><path d="M-1.52E-07 539.9998L960 539.9998L960 539.9998L960 -0.0002441406L960 -0.0002441406L-1.52E-07 -0.0002441406z" /></clipPath><clipPath id="9"><path d="M-2.75E-07 539.9998L960 539.9998L960 539.9998L960 -0.0002441406L960 -0.0002441406L-2.75E-07 -0.0002441406z" /></clipPath><clipPath id="10"><path d="M-1.44E-06 539.9999L960 539.9999L960 539.9999L960 -0.0001220703L960 -0.0001220703L-1.44E-06 -0.0001220703z" /></clipPath><clipPath id="11"><path d="M0 540L960 540L960 540L960 0L960 0L0 0z" /></clipPath><clipPath id="12"><path d="M0 540L960 540L960 540L960 0L960 0L0 0z" /></clipPath><clipPath id="13"><path d="M0 540L960 540L960 540L960 0L960 0L0 0z" /></clipPath><clipPath id="14"><path d="M0 540L960 540L960 540L960 0L960 0L0 0z" /></clipPath><clipPath id="15"><path d="M-2.813E-06 539.9999L960 539.9999L960 539.9999L960 -0.0001220703L960 -0.0001220703L-2.813E-06 -0.0001220703z" /></clipPath><clipPath id="16"><path d="M8.6E-08 539.9999L960 539.9999L960 539.9999L960 -0.0001220703L960 -0.0001220703L8.6E-08 -0.0001220703z" /></clipPath><clipPath id="17"><path d="M-9.64E-07 539.9998L960 539.9998L960 539.9998L960 -0.0001831055L960 -0.0001831055L-9.64E-07 -0.0001831055z" /></clipPath><clipPath id="18"><path d="M-2.581E-06 539.9998L960 539.9998L960 539.9998L960 -0.0001831055L960 -0.0001831055L-2.581E-06 -0.0001831055z" /></clipPath></defs><g transform="matrix(1.333333 0 0 1.333333 0 0)"><g><g clip-path="url(#1)"><g clip-path="url(#2)"><path transform="matrix(1 0 0 -1 0 540)" d="M0 6.104E-06L960 6.104E-06L960 6.104E-06L960 540L960 540L0 540z" stroke="none" fill="#FFFFFF" fill-rule="evenodd" /></g><g clip-path="url(#3)"><g transform="matrix(0.3596364 0 0 0.3603809 9.33E-07 0)"><g transform="matrix(1 0 0 1 0 0)"><image x="0" y="0" xlink:href="img_42.png" width="330" height="315" /></g></g></g><g clip-path="url(#4)"><path transform="matrix(1 0 0 -1 0 540)" d="M46.742 461.96L83.123 500.33L83.123 500.33L44.749 536.71L44.749 536.71L8.3674 498.34z" stroke="none" fill="none" /></g><g clip-path="url(#5)"><g transform="matrix(0.36 0 0 0.3595986 26.28 0)"><g transform="matrix(1 0 0 1 0 0)"><image x="0" y="0" xlink:href="img_43.png" width="362" height="299" /></g></g></g><g clip-path="url(#6)"><path transform="matrix(1 0 0 -1 0 540)" d="M92.212 467.98L121.12 498.48L121.12 498.48L90.628 527.39L90.628 527.39L61.717 496.89z" stroke="none" fill="none" /></g><g clip-path="url(#7)"><g transform="matrix(0.3274108 0 0 0.3274108 862.76 -0.0009765625)"><g transform="matrix(1 0 0 1 0 0)"><image x="0" y="0" xlink:href="img_44.png" width="297" height="297" /></g></g></g><g clip-path="url(#8)"><g transform="matrix(0.3602766 0 0 0.3604651 60.063 127.12)"><g transform="matrix(1 0 0 1 0 0)"><image x="0" y="0" xlink:href="img_57.png" width="976" height="473" /></g></g></g><g clip-path="url(#9)"><g transform="matrix(0.5717969 0 0 0.8886458 60.063 307.38)"><g transform="matrix(1 0 0 1 0 0)"><image x="0" y="0" xlink:href="img_58.png" width="256" height="192" /></g></g></g><g clip-path="url(#10)"><g transform="matrix(0.3604074 0 0 0.3607188 217.06 307.38)"><g transform="matrix(1 0 0 1 0 0)"><image x="0" y="0" xlink:href="img_59.png" width="540" height="473" /></g></g></g><g clip-path="url(#11)"><g transform="matrix(0.3601076 0 0 0.3597094 544.68 83.28)"><g transform="matrix(1 0 0 1 0 0)"><image x="0" y="0" xlink:href="img_60.png" width="1115" height="413" /></g></g></g><path transform="matrix(1 0 0 -1 0 540)" d="M581.44 343.75L909.44 343.75L909.44 343.75L909.44 421.125L909.44 421.125L581.44 421.125z" stroke="none" fill="none" /><g clip-path="url(#12)"><g transform="matrix(0.3598925 0 0 0.3597094 545.28 179.52)"><g transform="matrix(1 0 0 1 0 0)"><image x="0" y="0" xlink:href="img_61.png" width="1116" height="413" /></g></g></g><path transform="matrix(1 0 0 -1 0 540)" d="M582.06 247.5L910.06 247.5L910.06 247.5L910.06 324.875L910.06 324.875L582.06 324.875z" stroke="none" fill="none" /><g clip-path="url(#13)"><g transform="matrix(0.3598925 0 0 0.3602913 545.28 275.88)"><g transform="matrix(1 0 0 1 0 0)"><image x="0" y="0" xlink:href="img_62.png" width="1116" height="412" /></g></g></g><path transform="matrix(1 0 0 -1 0 540)" d="M582.06 151.25L910.06 151.25L910.06 151.25L910.06 228.625L910.06 228.625L582.06 228.625z" stroke="none" fill="none" /><g clip-path="url(#14)"><g transform="matrix(0.3598925 0 0 0.3602913 545.28 372)"><g transform="matrix(1 0 0 1 0 0)"><image x="0" y="0" xlink:href="img_62.png" width="1116" height="412" /></g></g></g><path transform="matrix(1 0 0 -1 0 540)" d="M582.06 55.125L910.06 55.125L910.06 55.125L910.06 132.5L910.06 132.5L582.06 132.5z" stroke="none" fill="none" /><path transform="matrix(1 0 0 -1 0 540)" d="M482.69 247.5L560.065 247.5L560.065 247.5L560.065 324.875L560.065 324.875L482.69 324.875z" stroke="none" fill="#00A1DA" fill-rule="evenodd" /><g clip-path="url(#15)"><g transform="matrix(0.3275 0 0 0.3275 496.81 228.495)"><g transform="matrix(1 0 0 1 0 0)"><image x="0" y="0" xlink:href="img_63.png" width="150" height="150" /></g></g></g><path transform="matrix(1 0 0 -1 0 540)" d="M482.69 151.25L560.065 151.25L560.065 151.25L560.065 228.625L560.065 228.625L482.69 228.625z" stroke="none" fill="#00C898" fill-rule="evenodd" /><g clip-path="url(#16)"><g transform="matrix(0.3280142 0 0 0.3259804 498.19 330.25)"><g transform="matrix(1 0 0 1 0 0)"><image x="0" y="0" xlink:href="img_64.png" width="141" height="102" /></g></g></g><path transform="matrix(1 0 0 -1 0 540)" d="M482.69 55.125L560.065 55.125L560.065 55.125L560.065 132.5L560.065 132.5L482.69 132.5z" stroke="none" fill="#92D050" fill-rule="evenodd" /><g clip-path="url(#17)"><g transform="matrix(0.3272358 0 0 0.328125 503.81 426.5)"><g transform="matrix(1 0 0 1 0 0)"><image x="0" y="0" xlink:href="img_65.png" width="123" height="120" /></g></g></g><path transform="matrix(1 0 0 -1 0 540)" d="M482.69 343.75L560.065 343.75L560.065 343.75L560.065 421.125L560.065 421.125L482.69 421.125z" stroke="none" fill="#0091C4" fill-rule="evenodd" /><g clip-path="url(#18)"><g transform="matrix(0.3269231 0 0 0.327911 503.06 132.125)"><g transform="matrix(1 0 0 1 0 0)"><image x="0" y="0" xlink:href="img_66.png" width="117" height="146" /></g></g></g></g></g></g></svg>