<svg xmlns="http://www.w3.org/2000/svg" xmlns:xlink="http://www.w3.org/1999/xlink" id="body_47" preserveAspectRatio="xMinYMin meet" viewBox="0 0 1280 720"><defs><clipPath id="1"><path d="M0 540L0 0L0 0L960 0L960 0L960 540L960 540L0 540z" /></clipPath><clipPath id="2"><path d="M0 539.9999L960 539.9999L960 539.9999L960 -0.0001220703L960 -0.0001220703L0 -0.0001220703z" /></clipPath><clipPath id="3"><path d="M0 540L960 540L960 540L960 0L960 0L0 0z" /></clipPath><clipPath id="4"><path d="M-2.38E-07 0L960 0L960 0L960 540.0001L960 540.0001L-8.31E-07 540" /></clipPath><clipPath id="5"><path d="M0 540L960 540L960 540L960 0L960 0L0 0z" /></clipPath><clipPath id="6"><path d="M-1.31E-07 0L960 0L960 0L960 540L960 540L-4.32E-07 540" /></clipPath><clipPath id="7"><path d="M-3.634E-06 540L960 540L960 540L960 0L960 0L-3.634E-06 0z" /></clipPath><clipPath id="8"><path d="M-4.046E-06 539.9999L960 539.9999L960 539.9999L960 -0.0001220703L960 -0.0001220703L-4.046E-06 -0.0001220703z" /></clipPath><clipPath id="9"><path d="M2.259E-06 539.9998L960 539.9998L960 539.9998L960 -0.0001831055L960 -0.0001831055L2.259E-06 -0.0001831055z" /></clipPath><clipPath id="10"><path d="M4.64E-07 539.9998L960 539.9998L960 539.9998L960 -0.0001831055L960 -0.0001831055L4.64E-07 -0.0001831055z" /></clipPath><clipPath id="11"><path d="M5.561E-06 539.9998L960 539.9998L960 539.9998L960 -0.0001831055L960 -0.0001831055L5.561E-06 -0.0001831055z" /></clipPath><clipPath id="12"><path d="M-5.118E-06 539.9998L960 539.9998L960 539.9998L960 -0.0002441406L960 -0.0002441406L-5.118E-06 -0.0002441406z" /></clipPath></defs><g transform="matrix(1.333333 0 0 1.333333 0 0)"><g><g clip-path="url(#1)"><g clip-path="url(#2)"><path transform="matrix(1 0 0 -1 0 540)" d="M0 6.104E-06L960 6.104E-06L960 6.104E-06L960 540L960 540L0 540z" stroke="none" fill="#FFFFFF" fill-rule="evenodd" /></g><g clip-path="url(#3)"><g transform="matrix(0.3596364 0 0 0.3603809 9.33E-07 0)"><g transform="matrix(1 0 0 1 0 0)"><image x="0" y="0" xlink:href="img_42.png" width="330" height="315" /></g></g></g><g clip-path="url(#4)"><path transform="matrix(1 0 0 -1 0 540)" d="M46.742 461.96L83.123 500.33L83.123 500.33L44.749 536.71L44.749 536.71L8.3674 498.34z" stroke="none" fill="none" /></g><g clip-path="url(#5)"><g transform="matrix(0.36 0 0 0.3595986 26.28 0)"><g transform="matrix(1 0 0 1 0 0)"><image x="0" y="0" xlink:href="img_43.png" width="362" height="299" /></g></g></g><g clip-path="url(#6)"><path transform="matrix(1 0 0 -1 0 540)" d="M92.212 467.98L121.12 498.48L121.12 498.48L90.628 527.39L90.628 527.39L61.717 496.89z" stroke="none" fill="none" /></g><g clip-path="url(#7)"><g transform="matrix(0.3274108 0 0 0.3274108 862.76 -0.0009765625)"><g transform="matrix(1 0 0 1 0 0)"><image x="0" y="0" xlink:href="img_44.png" width="297" height="297" /></g></g></g><g clip-path="url(#8)"><g transform="matrix(0.3603287 0 0 0.3604629 644.03 95.91)"><g transform="matrix(1 0 0 1 0 0)"><image x="0" y="0" xlink:href="img_179.png" width="791" height="540" /></g></g></g><g clip-path="url(#9)"><g transform="matrix(0.334178 0 0 0.3341011 388.34 304.009)"><g transform="matrix(1 0 0 1 0 0)"><image x="0" y="0" xlink:href="img_180.png" width="1618" height="673" /></g></g></g><g clip-path="url(#10)"><g transform="matrix(0.4440701 0 0 0.4707839 90.881 304.001)"><g transform="matrix(1 0 0 1 0 0)"><image x="0" y="0" xlink:href="img_181.png" width="656" height="472" /></g></g></g><g clip-path="url(#11)"><g transform="matrix(-0.5851359 0 0 0.5850556 961.44 173.9999)"><g transform="matrix(1 0 0 1 0 0)"><image x="0" y="0" xlink:href="img_182.png" width="331" height="629" /></g></g></g><g clip-path="url(#12)"><g transform="matrix(-0.6941125 0 0 0.6534146 888.35 192.1162)"><g transform="matrix(1 0 0 1 0 0)"><image x="0" y="0" xlink:href="img_183.png" width="231" height="533" /></g></g></g></g></g></g></svg>