<svg xmlns="http://www.w3.org/2000/svg" xmlns:xlink="http://www.w3.org/1999/xlink" id="body_43" preserveAspectRatio="xMinYMin meet" viewBox="0 0 1280 720"><defs><clipPath id="1"><path d="M0 540L0 0L0 0L960 0L960 0L960 540L960 540L0 540z" /></clipPath><clipPath id="2"><path d="M0 539.9999L960 539.9999L960 539.9999L960 -0.0001220703L960 -0.0001220703L0 -0.0001220703z" /></clipPath><clipPath id="3"><path d="M0 540L960 540L960 540L960 0L960 0L0 0z" /></clipPath><clipPath id="4"><path d="M-2.38E-07 0L960 0L960 0L960 540.0001L960 540.0001L-8.31E-07 540" /></clipPath><clipPath id="5"><path d="M0 540L960 540L960 540L960 0L960 0L0 0z" /></clipPath><clipPath id="6"><path d="M-1.31E-07 0L960 0L960 0L960 540L960 540L-4.32E-07 540" /></clipPath><clipPath id="7"><path d="M-3.634E-06 540L960 540L960 540L960 0L960 0L-3.634E-06 0z" /></clipPath><clipPath id="8"><path d="M-4.69E-07 539.9998L960 539.9998L960 539.9998L960 -0.0001831055L960 -0.0001831055L-4.69E-07 -0.0001831055z" /></clipPath><clipPath id="9"><path d="M-5.496E-06 539.9998L960 539.9998L960 539.9998L960 -0.0001831055L960 -0.0001831055L-5.496E-06 -0.0001831055z" /></clipPath><clipPath id="10"><path d="M-1.077E-06 539.9998L960 539.9998L960 539.9998L960 -0.0001831055L960 -0.0001831055L-1.077E-06 -0.0001831055z" /></clipPath><clipPath id="11"><path d="M-1.53E-06 539.9999L960 539.9999L960 539.9999L960 -0.0001220703L960 -0.0001220703L-1.53E-06 -0.0001220703z" /></clipPath><clipPath id="12"><path d="M-1.883E-06 539.9998L960 539.9998L960 539.9998L960 -0.0002441406L960 -0.0002441406L-1.883E-06 -0.0002441406z" /></clipPath><clipPath id="13"><path d="M-1.651E-06 539.9998L960 539.9998L960 539.9998L960 -0.0002441406L960 -0.0002441406L-1.651E-06 -0.0002441406z" /></clipPath><clipPath id="14"><path d="M-1.128E-06 539.9998L960 539.9998L960 539.9998L960 -0.0001831055L960 -0.0001831055L-1.128E-06 -0.0001831055z" /></clipPath><clipPath id="15"><path d="M-3.478E-06 539.9998L960 539.9998L960 539.9998L960 -0.0001831055L960 -0.0001831055L-3.478E-06 -0.0001831055z" /></clipPath><clipPath id="16"><path d="M2.529E-06 539.9998L960 539.9998L960 539.9998L960 -0.0001831055L960 -0.0001831055L2.529E-06 -0.0001831055z" /></clipPath><clipPath id="17"><path d="M3.49E-07 539.9998L960 539.9998L960 539.9998L960 -0.0001831055L960 -0.0001831055L3.49E-07 -0.0001831055z" /></clipPath><clipPath id="18"><path d="M-2.968E-06 539.9998L960 539.9998L960 539.9998L960 -0.0001831055L960 -0.0001831055L-2.968E-06 -0.0001831055z" /></clipPath><clipPath id="19"><path d="M-2.023E-06 539.9998L960 539.9998L960 539.9998L960 -0.0001831055L960 -0.0001831055L-2.023E-06 -0.0001831055z" /></clipPath><clipPath id="20"><path d="M2.229E-06 539.9998L960 539.9998L960 539.9998L960 -0.0002441406L960 -0.0002441406L2.229E-06 -0.0002441406z" /></clipPath></defs><g transform="matrix(1.333333 0 0 1.333333 0 0)"><g><g clip-path="url(#1)"><g clip-path="url(#2)"><path transform="matrix(1 0 0 -1 0 540)" d="M0 6.104E-06L960 6.104E-06L960 6.104E-06L960 540L960 540L0 540z" stroke="none" fill="#FFFFFF" fill-rule="evenodd" /></g><g clip-path="url(#3)"><g transform="matrix(0.3596364 0 0 0.3603809 9.33E-07 0)"><g transform="matrix(1 0 0 1 0 0)"><image x="0" y="0" xlink:href="img_42.png" width="330" height="315" /></g></g></g><g clip-path="url(#4)"><path transform="matrix(1 0 0 -1 0 540)" d="M46.742 461.96L83.123 500.33L83.123 500.33L44.749 536.71L44.749 536.71L8.3674 498.34z" stroke="none" fill="none" /></g><g clip-path="url(#5)"><g transform="matrix(0.36 0 0 0.3595986 26.28 0)"><g transform="matrix(1 0 0 1 0 0)"><image x="0" y="0" xlink:href="img_43.png" width="362" height="299" /></g></g></g><g clip-path="url(#6)"><path transform="matrix(1 0 0 -1 0 540)" d="M92.212 467.98L121.12 498.48L121.12 498.48L90.628 527.39L90.628 527.39L61.717 496.89z" stroke="none" fill="none" /></g><g clip-path="url(#7)"><g transform="matrix(0.3274108 0 0 0.3274108 862.76 -0.0009765625)"><g transform="matrix(1 0 0 1 0 0)"><image x="0" y="0" xlink:href="img_44.png" width="297" height="297" /></g></g></g><g clip-path="url(#8)"><g transform="matrix(0.3967641 0 0 0.3967724 219.74 436.632)"><g transform="matrix(1 0 0 1 0 0)"><image x="0" y="0" xlink:href="img_150.png" width="479" height="123" /></g></g></g><g clip-path="url(#9)"><g transform="matrix(0.4979873 0 0 0.4979898 457.47 438.665)"><g transform="matrix(1 0 0 1 0 0)"><image x="0" y="0" xlink:href="img_151.png" width="472" height="98" /></g></g></g><g clip-path="url(#10)"><g transform="matrix(0.8782403 0 0 0.8782467 181.16 346.035)"><g transform="matrix(1 0 0 1 0 0)"><image x="0" y="0" xlink:href="img_152.png" width="466" height="77" /></g></g></g><g clip-path="url(#11)"><g transform="matrix(0.4309683 0 0 0.4309621 192.37 103.162)"><g transform="matrix(1 0 0 1 0 0)"><image x="0" y="0" xlink:href="img_153.png" width="568" height="185" /></g></g></g><g clip-path="url(#12)"><g transform="matrix(0.6320988 0 0 0.6320785 571.25 267.898)"><g transform="matrix(1 0 0 1 0 0)"><image x="0" y="0" xlink:href="img_154.png" width="243" height="102" /></g></g></g><g clip-path="url(#13)"><g transform="matrix(0.3382537 0 0 0.3382526 692.53 110.519)"><g transform="matrix(1 0 0 1 0 0)"><image x="0" y="0" xlink:href="img_155.png" width="607" height="194" /></g></g></g><g clip-path="url(#14)"><g transform="matrix(0.9901305 0 0 0.9901364 211.2 198.841)"><g transform="matrix(1 0 0 1 0 0)"><image x="0" y="0" xlink:href="img_156.png" width="383" height="66" /></g></g></g><g clip-path="url(#15)"><g transform="matrix(0.8509259 0 0 0.8509265 733.47 435.605)"><g transform="matrix(1 0 0 1 0 0)"><image x="0" y="0" xlink:href="img_157.png" width="216" height="68" /></g></g></g><g clip-path="url(#16)"><g transform="matrix(0.6081985 0 0 0.608209 678.71 188.4)"><g transform="matrix(1 0 0 1 0 0)"><image x="0" y="0" xlink:href="img_158.png" width="383" height="134" /></g></g></g><g clip-path="url(#17)"><g transform="matrix(0.3044606 0 0 0.3044595 504.05 100.18)"><g transform="matrix(1 0 0 1 0 0)"><image x="0" y="0" xlink:href="img_159.png" width="482" height="296" /></g></g></g><g clip-path="url(#18)"><g transform="matrix(0.6474327 0 0 0.6474369 181.16 264.194)"><g transform="matrix(1 0 0 1 0 0)"><image x="0" y="0" xlink:href="img_160.png" width="557" height="103" /></g></g></g><g clip-path="url(#19)"><g transform="matrix(0.6131773 0 0 0.6123113 614.04 348.755)"><g transform="matrix(1 0 0 1 0 0)"><image x="0" y="0" xlink:href="img_161.png" width="141" height="106" /></g></g></g><g clip-path="url(#20)"><g transform="matrix(0.408076 0 0 0.4080805 733.86 281.85)"><g transform="matrix(1 0 0 1 0 0)"><image x="0" y="0" xlink:href="img_162.png" width="421" height="323" /></g></g></g></g></g></g></svg>