<svg xmlns="http://www.w3.org/2000/svg" xmlns:xlink="http://www.w3.org/1999/xlink" id="body_3" preserveAspectRatio="xMinYMin meet" viewBox="0 0 1280 720"><defs><clipPath id="1"><path d="M0 540L0 0L0 0L960 0L960 0L960 540L960 540L0 540z" /></clipPath><clipPath id="2"><path d="M0 539.9999L960 539.9999L960 539.9999L960 -0.0001220703L960 -0.0001220703L0 -0.0001220703z" /></clipPath><clipPath id="3"><path d="M0 540L960 540L960 540L960 0L960 0L0 0z" /></clipPath><clipPath id="4"><path d="M-2.314E-06 0L960 0L960 0L960 539.9998L960 539.9998L-2.314E-06 539.9998" /></clipPath><clipPath id="5"><path d="M0 540L960 540L960 540L960 0L960 0L0 0z" /></clipPath><clipPath id="6"><path d="M0 539.9998L960 539.9998L960 539.9998L960 -0.0002441406L960 -0.0002441406L0 -0.0002441406z" /></clipPath><clipPath id="7"><path d="M0 540L960 540L960 540L960 0L960 0L0 0z" /></clipPath><clipPath id="8"><path d="M-6.406E-06 0L960 0L960 0L960 539.9999L960 539.9999L-6.406E-06 539.9999" /></clipPath><clipPath id="9"><path d="M0 540L960 540L960 540L960 0L960 0L0 0z" /></clipPath><clipPath id="10"><path d="M1.348E-06 0L960 0L960 0L960 539.9999L960 539.9999L1.348E-06 539.9999" /></clipPath><clipPath id="11"><path d="M-8.09E-07 539.9998L960 539.9998L960 539.9998L960 -0.0001831055L960 -0.0001831055L-8.09E-07 -0.0001831055z" /></clipPath></defs><g transform="matrix(1.333333 0 0 1.333333 0 0)"><g><g clip-path="url(#1)"><g clip-path="url(#2)"><path transform="matrix(1 0 0 -1 0 540)" d="M0 6.104E-06L960 6.104E-06L960 6.104E-06L960 540L960 540L0 540z" stroke="none" fill="#FFFFFF" fill-rule="evenodd" /></g><g clip-path="url(#3)"><g transform="matrix(0.3602661 0 0 0.36 401.88 37.44)"><g transform="matrix(1 0 0 1 0 0)"><image x="0" y="0" xlink:href="img_32.png" width="451" height="479" /></g></g></g><g clip-path="url(#4)"><path transform="matrix(1 0 0 -1 0 540)" d="M442.35 387.48C 440.93 388.33 439.7 389.51 438.8 391.03C 437.87 392.61 437.46 394.35 437.5 396.08L437.5 396.08L437.5 436.76C 437.5 438.38 437.91 440.08 438.8 441.6C 439.7 443.11 440.93 444.33 442.39 445.14L442.39 445.14L478.13 465.55C 479.59 466.4 481.27 466.88 483.1 466.88C 484.92 466.88 486.6 466.4 488.1 465.55L488.1 465.55L523.69 445.21C 525.15 444.36 526.46 443.15 527.35 441.6C 528.21 440.16 528.66 438.57 528.69 436.98L528.69 436.98L528.69 396.16C 528.73 394.42 528.32 392.65 527.35 391.03C 526.49 389.51 525.26 388.29 523.81 387.48L523.81 387.48L488.21 367.14C 486.72 366.26 484.96 365.74 483.1 365.74C 481.19 365.74 479.44 366.26 477.95 367.18L477.95 367.18L442.35 387.48z" stroke="none" fill="none" /></g><g clip-path="url(#5)"><g transform="matrix(0.359955 0 0 0.36 2.538E-06 223.2)"><g transform="matrix(1 0 0 1 0 0)"><image x="0" y="0" xlink:href="img_33.png" width="2667" height="880" /></g></g></g><g clip-path="url(#6)"><path transform="matrix(1 0 0 -1 0 540)" d="M0.062598 6.104E-06L959.9326 6.104E-06L959.9326 6.104E-06L959.9326 280.29L959.9326 280.29L0.062598 280.29z" stroke="none" fill="none" /></g><path transform="matrix(1 0 0 -1 0 540)" d="M117.13 232.85L321.24 232.85" stroke="#FFFFFF" stroke-width="8" fill="none" /><path transform="matrix(1 0 0 -1 0 540)" d="M633.09 233.17L865.55 233.17" stroke="#FFFFFF" stroke-width="8" fill="none" /><g clip-path="url(#7)"><g transform="matrix(0.3602661 0 0 0.3602505 448.32 119.64)"><g transform="matrix(1 0 0 1 0 0)"><image x="0" y="0" xlink:href="img_34.png" width="451" height="479" /></g></g></g><g clip-path="url(#8)"><path transform="matrix(1 0 0 -1 0 540)" d="M488.81 305.24C 487.4 306.09 486.16 307.27 485.27 308.79C 484.34 310.37 483.93 312.11 483.96 313.84L483.96 313.84L483.96 354.52C 483.96 356.14 484.37 357.84 485.27 359.36C 486.16 360.87 487.4 362.09 488.85 362.9L488.85 362.9L524.6 383.31C 526.05 384.16 527.73 384.64 529.56 384.64C 531.39 384.64 533.07 384.16 534.56 383.31L534.56 383.31L570.16 362.97C 571.61 362.12 572.92 360.91 573.81 359.36C 574.67 357.92 575.12 356.33 575.16 354.74L575.16 354.74L575.16 313.92C 575.2 312.18 574.79 310.41 573.81 308.79C 572.96 307.27 571.73 306.05 570.27 305.24L570.27 305.24L534.67 284.9C 533.18 284.02 531.43 283.5 529.56 283.5C 527.66 283.5 525.9 284.02 524.41 284.94L524.41 284.94L488.81 305.24z" stroke="none" fill="none" /></g><g clip-path="url(#9)"><g transform="matrix(0.3602661 0 0 0.36 351 118.44)"><g transform="matrix(1 0 0 1 0 0)"><image x="0" y="0" xlink:href="img_35.png" width="451" height="479" /></g></g></g><g clip-path="url(#10)"><path transform="matrix(1 0 0 -1 0 540)" d="M391.48 306.52C 390.06 307.37 388.83 308.55 387.93 310.06C 387 311.65 386.59 313.39 386.63 315.12L386.63 315.12L386.63 355.8C 386.63 357.42 387.04 359.12 387.93 360.63C 388.83 362.15 390.06 363.37 391.51 364.18L391.51 364.18L427.26 384.59C 428.72 385.44 430.4 385.92 432.22 385.92C 434.05 385.92 435.73 385.44 437.22 384.59L437.22 384.59L472.82 364.25C 474.28 363.4 475.58 362.18 476.48 360.63C 477.34 359.19 477.78 357.61 477.82 356.02L477.82 356.02L477.82 315.19C 477.86 313.46 477.45 311.69 476.48 310.06C 475.62 308.55 474.39 307.33 472.93 306.52L472.93 306.52L437.34 286.18C 435.84 285.3 434.09 284.78 432.22 284.78C 430.32 284.78 428.57 285.3 427.07 286.22L427.07 286.22L391.48 306.52z" stroke="none" fill="none" /></g><g clip-path="url(#11)"><g transform="matrix(0.3275694 0 0 0.3275694 448.55 84.60498)"><g transform="matrix(1 0 0 1 0 0)"><image x="0" y="0" xlink:href="img_36.png" width="216" height="216" /></g></g></g></g></g></g></svg>