<svg xmlns="http://www.w3.org/2000/svg" xmlns:xlink="http://www.w3.org/1999/xlink" id="body_38" preserveAspectRatio="xMinYMin meet" viewBox="0 0 1280 720"><defs><clipPath id="1"><path d="M0 540L0 0L0 0L960 0L960 0L960 540L960 540L0 540z" /></clipPath><clipPath id="2"><path d="M0 539.9999L960 539.9999L960 539.9999L960 -0.0001220703L960 -0.0001220703L0 -0.0001220703z" /></clipPath><clipPath id="3"><path d="M0 540L960 540L960 540L960 0L960 0L0 0z" /></clipPath><clipPath id="4"><path d="M-2.38E-07 0L960 0L960 0L960 540.0001L960 540.0001L-8.31E-07 540" /></clipPath><clipPath id="5"><path d="M0 540L960 540L960 540L960 0L960 0L0 0z" /></clipPath><clipPath id="6"><path d="M-1.31E-07 0L960 0L960 0L960 540L960 540L-4.32E-07 540" /></clipPath><clipPath id="7"><path d="M-3.634E-06 540L960 540L960 540L960 0L960 0L-3.634E-06 0z" /></clipPath><clipPath id="8"><path d="M-6.7E-08 539.9998L960 539.9998L960 539.9998L960 -0.0002441406L960 -0.0002441406L-6.7E-08 -0.0002441406z" /></clipPath><clipPath id="9"><path d="M-2.856E-06 539.9998L960 539.9998L960 539.9998L960 -0.0002441406L960 -0.0002441406L-2.856E-06 -0.0002441406z" /></clipPath><clipPath id="10"><path d="M-0.00010329 539.9999L959.9999 539.9999L959.9999 539.9999L959.9999 -0.0001220703L959.9999 -0.0001220703L-0.00010329 -0.0001220703z" /></clipPath></defs><g transform="matrix(1.333333 0 0 1.333333 0 0)"><g><g clip-path="url(#1)"><g clip-path="url(#2)"><path transform="matrix(1 0 0 -1 0 540)" d="M0 6.104E-06L960 6.104E-06L960 6.104E-06L960 540L960 540L0 540z" stroke="none" fill="#FFFFFF" fill-rule="evenodd" /></g><g clip-path="url(#3)"><g transform="matrix(0.3596364 0 0 0.3603809 9.33E-07 0)"><g transform="matrix(1 0 0 1 0 0)"><image x="0" y="0" xlink:href="img_42.png" width="330" height="315" /></g></g></g><g clip-path="url(#4)"><path transform="matrix(1 0 0 -1 0 540)" d="M46.742 461.96L83.123 500.33L83.123 500.33L44.749 536.71L44.749 536.71L8.3674 498.34z" stroke="none" fill="none" /></g><g clip-path="url(#5)"><g transform="matrix(0.36 0 0 0.3595986 26.28 0)"><g transform="matrix(1 0 0 1 0 0)"><image x="0" y="0" xlink:href="img_43.png" width="362" height="299" /></g></g></g><g clip-path="url(#6)"><path transform="matrix(1 0 0 -1 0 540)" d="M92.212 467.98L121.12 498.48L121.12 498.48L90.628 527.39L90.628 527.39L61.717 496.89z" stroke="none" fill="none" /></g><g clip-path="url(#7)"><g transform="matrix(0.3274108 0 0 0.3274108 862.76 -0.0009765625)"><g transform="matrix(1 0 0 1 0 0)"><image x="0" y="0" xlink:href="img_44.png" width="297" height="297" /></g></g></g><g clip-path="url(#8)"><g transform="matrix(0.3917875 0 0 0.3917875 31.888 123.82)"><g transform="matrix(1 0 0 1 0 0)"><image x="0" y="0" xlink:href="img_139.png" width="800" height="800" /></g></g></g><g clip-path="url(#9)"><g transform="matrix(0.641 0 0 0.641 380.12 123.83)"><g transform="matrix(1 0 0 1 0 0)"><image x="0" y="0" xlink:href="img_140.png" width="450" height="300" /></g></g></g><g clip-path="url(#10)"><g transform="matrix(0.4171382 0 0 0.4171367 680.71 123.83)"><g transform="matrix(1 0 0 1 0 0)"><image x="0" y="0" xlink:href="img_141.png" width="615" height="461" /></g></g></g></g></g></g></svg>