<svg xmlns="http://www.w3.org/2000/svg" xmlns:xlink="http://www.w3.org/1999/xlink" id="body_2" preserveAspectRatio="xMinYMin meet" viewBox="0 0 1280 720"><defs><clipPath id="1"><path d="M0 540L0 0L0 0L960 0L960 0L960 540L960 540L0 540z" /></clipPath><clipPath id="2"><path d="M0 539.9999L960 539.9999L960 539.9999L960 -0.0001220703L960 -0.0001220703L0 -0.0001220703z" /></clipPath><clipPath id="3"><path d="M0 540L960 540L960 540L960 0L960 0L0 0z" /></clipPath><clipPath id="4"><path d="M-2.271E-06 0L960 0L960 0L960 539.9999L960 539.9999L-2.643E-06 539.9999" /></clipPath><pattern patternTransform="matrix(0.41306 0 -2E-09 -0.61958 -150.07 666.91)" id="626" x="0" y="0" width="1536" height="1024" patternUnits="userSpaceOnUse"><image x="0" y="0" width="1536" height="1024" xlink:href="img_21.png" /></pattern><clipPath id="5"><path d="M-2.271E-06 0L960 0L960 0L960 539.9999L960 539.9999L-2.643E-06 539.9999" /></clipPath><clipPath id="6"><path d="M-1.902E-06 0L960 0L960 0L960 539.9998L960 539.9998L-2.97E-06 540" /></clipPath><pattern patternTransform="matrix(0.41306 0 -2E-09 -0.61958 -150.07 666.91)" id="1213" x="0" y="0" width="1536" height="1024" patternUnits="userSpaceOnUse"><image x="0" y="0" width="1536" height="1024" xlink:href="img_21.png" /></pattern><clipPath id="7"><path d="M-1.902E-06 0L960 0L960 0L960 539.9998L960 539.9998L-2.97E-06 540" /></clipPath><clipPath id="8"><path d="M-7E-09 0L960 0L960 0L960 539.9998L960 539.9998L-1.771E-06 540" /></clipPath><pattern patternTransform="matrix(0.41306 0 -2E-09 -0.61958 -150.07 666.91)" id="1792" x="0" y="0" width="1536" height="1024" patternUnits="userSpaceOnUse"><image x="0" y="0" width="1536" height="1024" xlink:href="img_21.png" /></pattern><clipPath id="9"><path d="M-7E-09 0L960 0L960 0L960 539.9998L960 539.9998L-1.771E-06 540" /></clipPath><clipPath id="10"><path d="M-2.458E-06 0L960 0L960 0L960 539.9999L960 539.9999L-2.482E-06 540" /></clipPath><pattern patternTransform="matrix(0.41306 0 -2E-09 -0.61958 -150.07 666.91)" id="2373" x="0" y="0" width="1536" height="1024" patternUnits="userSpaceOnUse"><image x="0" y="0" width="1536" height="1024" xlink:href="img_21.png" /></pattern><clipPath id="11"><path d="M-2.458E-06 0L960 0L960 0L960 539.9999L960 539.9999L-2.482E-06 540" /></clipPath><clipPath id="12"><path d="M-2.919E-06 0L960 0L960 0L960 539.9999L960 539.9999L-2.943E-06 540" /></clipPath><pattern patternTransform="matrix(0.41306 0 -2E-09 -0.61958 -150.07 666.91)" id="2959" x="0" y="0" width="1536" height="1024" patternUnits="userSpaceOnUse"><image x="0" y="0" width="1536" height="1024" xlink:href="img_21.png" /></pattern><clipPath id="13"><path d="M-2.919E-06 0L960 0L960 0L960 539.9999L960 539.9999L-2.943E-06 540" /></clipPath><clipPath id="14"><path d="M-3.28E-07 0L960 0L960 0L960 539.9998L960 539.9998L-1.745E-06 540" /></clipPath><pattern patternTransform="matrix(0.41306 0 -2E-09 -0.61958 -150.07 666.91)" id="3544" x="0" y="0" width="1536" height="1024" patternUnits="userSpaceOnUse"><image x="0" y="0" width="1536" height="1024" xlink:href="img_21.png" /></pattern><clipPath id="15"><path d="M-3.28E-07 0L960 0L960 0L960 539.9998L960 539.9998L-1.745E-06 540" /></clipPath><clipPath id="16"><path d="M-8.4E-07 0L960 0L960 0L960 539.9999L960 539.9999L-4.866E-06 540" /></clipPath><pattern patternTransform="matrix(0.41306 0 -2E-09 -0.61958 -150.07 666.91)" id="4127" x="0" y="0" width="1536" height="1024" patternUnits="userSpaceOnUse"><image x="0" y="0" width="1536" height="1024" xlink:href="img_21.png" /></pattern><clipPath id="17"><path d="M-8.4E-07 0L960 0L960 0L960 539.9999L960 539.9999L-4.866E-06 540" /></clipPath><clipPath id="18"><path d="M-5.7E-08 0L960 0L960 0L960 539.9999L960 539.9999L6.14E-07 540" /></clipPath><pattern patternTransform="matrix(0.41306 0 -2E-09 -0.61958 -150.07 666.91)" id="4707" x="0" y="0" width="1536" height="1024" patternUnits="userSpaceOnUse"><image x="0" y="0" width="1536" height="1024" xlink:href="img_21.png" /></pattern><clipPath id="19"><path d="M-5.7E-08 0L960 0L960 0L960 539.9999L960 539.9999L6.14E-07 540" /></clipPath><clipPath id="20"><path d="M3.52E-07 0L960 0L960 0L960 539.9998L960 539.9998L-2.108E-06 540" /></clipPath><pattern patternTransform="matrix(0.41306 0 -2E-09 -0.61958 -150.07 666.91)" id="5287" x="0" y="0" width="1536" height="1024" patternUnits="userSpaceOnUse"><image x="0" y="0" width="1536" height="1024" xlink:href="img_21.png" /></pattern><clipPath id="21"><path d="M3.52E-07 0L960 0L960 0L960 539.9998L960 539.9998L-2.108E-06 540" /></clipPath><clipPath id="22"><path d="M0 540L960 540L960 540L960 0L960 0L0 0z" /></clipPath><clipPath id="23"><path d="M-3.099E-06 0L960 0L960 0L960 539.9998L960 539.9998L-3.472E-06 540" /></clipPath><clipPath id="24"><path d="M0 540L960 540L960 540L960 0L960 0L0 0z" /></clipPath><clipPath id="25"><path d="M0 540L960 540L960 540L960 0L960 0L0 0z" /></clipPath><clipPath id="26"><path d="M0 540L960 540L960 540L960 0L960 0L0 0z" /></clipPath><clipPath id="27"><path d="M-2.891E-06 0L960 0L960 0L960 539.9998L960 539.9998L-3.264E-06 540" /></clipPath><clipPath id="28"><path d="M0 540L960 540L960 540L960 0L960 0L0 0z" /></clipPath><clipPath id="29"><path d="M0 540L960 540L960 540L960 0L960 0L0 0z" /></clipPath><clipPath id="30"><path d="M0 540L960 540L960 540L960 0L960 0L0 0z" /></clipPath><clipPath id="31"><path d="M0 540L960 540L960 540L960 0L960 0L0 0z" /></clipPath><clipPath id="32"><path d="M0 540L960 540L960 540L960 0L960 0L0 0z" /></clipPath></defs><g transform="matrix(1.333333 0 0 1.333333 0 0)"><g><g clip-path="url(#1)"><g clip-path="url(#2)"><path transform="matrix(1 0 0 -1 0 540)" d="M0 6.104E-06L960 6.104E-06L960 6.104E-06L960 540L960 540L0 540z" stroke="none" fill="#FFFFFF" fill-rule="evenodd" /></g><g clip-path="url(#3)"><g transform="matrix(0.36 0 0 0.36 0 0)"><g transform="matrix(1 0 0 1 0 0)"><image x="0" y="0" xlink:href="img_20.png" width="1455" height="1500" /></g></g></g><g clip-path="url(#4)"><path transform="matrix(1 0 0 -1 0 540)" d="M272.9 561.16L378.64 455.42L378.64 455.42L272.9 349.68L272.9 349.68L167.16 455.42z" stroke="none" fill="url(#626)" /></g><g clip-path="url(#5)"><path transform="matrix(1 0 0 -1 0 540)" d="M272.9 561.16L378.64 455.42L378.64 455.42L272.9 349.68L272.9 349.68L167.16 455.42z" stroke="#FFFFFF" stroke-width="6" fill="none" /></g><g clip-path="url(#6)"><path transform="matrix(1 0 0 -1 0 540)" d="M167.16 455.42L272.9 349.68L272.9 349.68L167.16 243.94L167.16 243.94L61.413 349.68z" stroke="none" fill="url(#1213)" /></g><g clip-path="url(#7)"><path transform="matrix(1 0 0 -1 0 540)" d="M167.16 455.42L272.9 349.68L272.9 349.68L167.16 243.94L167.16 243.94L61.413 349.68z" stroke="#FFFFFF" stroke-width="6" fill="none" /></g><g clip-path="url(#8)"><path transform="matrix(1 0 0 -1 0 540)" d="M61.413 349.68L167.16 243.94L167.16 243.94L61.413 138.19L61.413 138.19L-44.329 243.94z" stroke="none" fill="url(#1792)" /></g><g clip-path="url(#9)"><path transform="matrix(1 0 0 -1 0 540)" d="M61.413 349.68L167.16 243.94L167.16 243.94L61.413 138.19L61.413 138.19L-44.329 243.94z" stroke="#FFFFFF" stroke-width="6" fill="none" /></g><g clip-path="url(#10)"><path transform="matrix(1 0 0 -1 0 540)" d="M378.64 455.42L484.38 349.68L484.38 349.68L378.64 243.94L378.64 243.94L272.9 349.68z" stroke="none" fill="url(#2373)" /></g><g clip-path="url(#11)"><path transform="matrix(1 0 0 -1 0 540)" d="M378.64 455.42L484.38 349.68L484.38 349.68L378.64 243.94L378.64 243.94L272.9 349.68z" stroke="#FFFFFF" stroke-width="6" fill="none" /></g><g clip-path="url(#12)"><path transform="matrix(1 0 0 -1 0 540)" d="M272.9 349.68L378.64 243.94L378.64 243.94L272.9 138.19L272.9 138.19L167.16 243.94z" stroke="none" fill="url(#2959)" /></g><g clip-path="url(#13)"><path transform="matrix(1 0 0 -1 0 540)" d="M272.9 349.68L378.64 243.94L378.64 243.94L272.9 138.19L272.9 138.19L167.16 243.94z" stroke="#FFFFFF" stroke-width="6" fill="none" /></g><g clip-path="url(#14)"><path transform="matrix(1 0 0 -1 0 540)" d="M167.16 243.94L272.9 138.19L272.9 138.19L167.16 32.453L167.16 32.453L61.413 138.19z" stroke="none" fill="url(#3544)" /></g><g clip-path="url(#15)"><path transform="matrix(1 0 0 -1 0 540)" d="M167.16 243.94L272.9 138.19L272.9 138.19L167.16 32.453L167.16 32.453L61.413 138.19z" stroke="#FFFFFF" stroke-width="6" fill="none" /></g><g clip-path="url(#16)"><path transform="matrix(1 0 0 -1 0 540)" d="M167.16 666.91L272.9 561.16L272.9 561.16L167.16 455.42L167.16 455.42L61.413 561.16z" stroke="none" fill="url(#4127)" /></g><g clip-path="url(#17)"><path transform="matrix(1 0 0 -1 0 540)" d="M167.16 666.91L272.9 561.16L272.9 561.16L167.16 455.42L167.16 455.42L61.413 561.16z" stroke="#FFFFFF" stroke-width="6" fill="none" /></g><g clip-path="url(#18)"><path transform="matrix(1 0 0 -1 0 540)" d="M61.715 560.56L167.46 454.82L167.46 454.82L61.715 349.07L61.715 349.07L-44.027 454.82z" stroke="none" fill="url(#4707)" /></g><g clip-path="url(#19)"><path transform="matrix(1 0 0 -1 0 540)" d="M61.715 560.56L167.46 454.82L167.46 454.82L61.715 349.07L61.715 349.07L-44.027 454.82z" stroke="#FFFFFF" stroke-width="6" fill="none" /></g><g clip-path="url(#20)"><path transform="matrix(1 0 0 -1 0 540)" d="M-44.329 455.42L61.413 349.68L61.413 349.68L-44.329 243.94L-44.329 243.94L-150.07 349.68z" stroke="none" fill="url(#5287)" /></g><g clip-path="url(#21)"><path transform="matrix(1 0 0 -1 0 540)" d="M-44.329 455.42L61.413 349.68L61.413 349.68L-44.329 243.94L-44.329 243.94L-150.07 349.68z" stroke="#FFFFFF" stroke-width="6" fill="none" /></g><g clip-path="url(#22)"><g transform="matrix(0.3600912 0 0 0.3601932 257.52 0)"><g transform="matrix(1 0 0 1 0 0)"><image x="0" y="0" xlink:href="img_22.png" width="1315" height="621" /></g></g></g><g clip-path="url(#23)"><path transform="matrix(1 0 0 -1 0 540)" d="M494.26 752.59L693.84 553.01L693.84 553.01L494.26 353.43L494.26 353.43L294.68 553.01z" stroke="none" fill="none" /></g><g clip-path="url(#24)"><g transform="matrix(0.3602537 0 0 0.3605911 408.96 16.32001)"><g transform="matrix(1 0 0 1 0 0)"><image x="0" y="0" xlink:href="img_23.png" width="473" height="203" /></g></g></g><g clip-path="url(#25)"><g transform="matrix(0.36 0 0 0.3605911 534.24 16.32001)"><g transform="matrix(1 0 0 1 0 0)"><image x="0" y="0" xlink:href="img_24.png" width="169" height="203" /></g></g></g><g clip-path="url(#26)"><g transform="matrix(0.3598479 0 0 0.3598479 26.04 49.07999)"><g transform="matrix(1 0 0 1 0 0)"><image x="0" y="0" xlink:href="img_25.png" width="789" height="789" /></g></g></g><g clip-path="url(#27)"><path transform="matrix(1 0 0 -1 0 540)" d="M168.06 454.71L273.8 348.97L273.8 348.97L168.06 243.23L168.06 243.23L62.317 348.97z" stroke="none" fill="none" /></g><g clip-path="url(#28)"><g transform="matrix(0.3602691 0 0 0.36 82.2 152.52)"><g transform="matrix(1 0 0 1 0 0)"><image x="0" y="0" xlink:href="img_26.png" width="446" height="301" /></g></g></g><g clip-path="url(#29)"><g transform="matrix(0.3604819 0 0 0.36 176.76 152.52)"><g transform="matrix(1 0 0 1 0 0)"><image x="0" y="0" xlink:href="img_27.png" width="249" height="301" /></g></g></g><path transform="matrix(1 0 0 -1 0 540)" d="M658.86 356.48L658.86 178.33" stroke="#D9D9D9" stroke-width="0.5" fill="none" /><g clip-path="url(#30)"><g transform="matrix(0.3595122 0 0 0.3604781 615.36 163.44)"><g transform="matrix(1 0 0 1 0 0)"><image x="0" y="0" xlink:href="img_28.png" width="246" height="251" /></g></g></g><path transform="matrix(1 0 0 -1 0 540)" d="M668.57 341.28L659.59 321.39L659.59 321.39L650.6 341.28z" stroke="none" fill="none" /><g clip-path="url(#31)"><g transform="matrix(0.3595122 0 0 0.3604781 614.64 228.84)"><g transform="matrix(1 0 0 1 0 0)"><image x="0" y="0" xlink:href="img_29.png" width="246" height="251" /></g></g></g><path transform="matrix(1 0 0 -1 0 540)" d="M667.84 275.87L658.86 255.97L658.86 255.97L649.88 275.87z" stroke="none" fill="none" /><g clip-path="url(#32)"><g transform="matrix(0.3595122 0 0 0.3604781 615.36 299.28)"><g transform="matrix(1 0 0 1 0 0)"><image x="0" y="0" xlink:href="img_30.png" width="246" height="251" /></g></g></g><path transform="matrix(1 0 0 -1 0 540)" d="M668.57 205.42L659.59 185.53L659.59 185.53L650.6 205.42z" stroke="none" fill="none" /></g></g></g></svg>