<svg xmlns="http://www.w3.org/2000/svg" xmlns:xlink="http://www.w3.org/1999/xlink" id="body_22" preserveAspectRatio="xMinYMin meet" viewBox="0 0 1280 720"><defs><clipPath id="1"><path d="M0 540L0 0L0 0L960 0L960 0L960 540L960 540L0 540z" /></clipPath><clipPath id="2"><path d="M0 539.9999L960 539.9999L960 539.9999L960 -0.0001220703L960 -0.0001220703L0 -0.0001220703z" /></clipPath><clipPath id="3"><path d="M0 540L960 540L960 540L960 0L960 0L0 0z" /></clipPath><clipPath id="4"><path d="M-2.38E-07 0L960 0L960 0L960 540.0001L960 540.0001L-8.31E-07 540" /></clipPath><clipPath id="5"><path d="M0 540L960 540L960 540L960 0L960 0L0 0z" /></clipPath><clipPath id="6"><path d="M-1.31E-07 0L960 0L960 0L960 540L960 540L-4.32E-07 540" /></clipPath><clipPath id="7"><path d="M-3.634E-06 540L960 540L960 540L960 0L960 0L-3.634E-06 0z" /></clipPath><clipPath id="8"><path d="M-8.1E-08 539.9998L960 539.9998L960 539.9998L960 -0.0001831055L960 -0.0001831055L-8.1E-08 -0.0001831055z" /></clipPath><clipPath id="9"><path d="M-7.4E-08 539.9998L960 539.9998L960 539.9998L960 -0.0001831055L960 -0.0001831055L-7.4E-08 -0.0001831055z" /></clipPath><clipPath id="10"><path d="M-1.3E-07 539.9998L960 539.9998L960 539.9998L960 -0.0001831055L960 -0.0001831055L-1.3E-07 -0.0001831055z" /></clipPath></defs><g transform="matrix(1.333333 0 0 1.333333 0 0)"><g><g clip-path="url(#1)"><g clip-path="url(#2)"><path transform="matrix(1 0 0 -1 0 540)" d="M0 6.104E-06L960 6.104E-06L960 6.104E-06L960 540L960 540L0 540z" stroke="none" fill="#FFFFFF" fill-rule="evenodd" /></g><g clip-path="url(#3)"><g transform="matrix(0.3596364 0 0 0.3603809 9.33E-07 0)"><g transform="matrix(1 0 0 1 0 0)"><image x="0" y="0" xlink:href="img_42.png" width="330" height="315" /></g></g></g><g clip-path="url(#4)"><path transform="matrix(1 0 0 -1 0 540)" d="M46.742 461.96L83.123 500.33L83.123 500.33L44.749 536.71L44.749 536.71L8.3674 498.34z" stroke="none" fill="none" /></g><g clip-path="url(#5)"><g transform="matrix(0.36 0 0 0.3595986 26.28 0)"><g transform="matrix(1 0 0 1 0 0)"><image x="0" y="0" xlink:href="img_43.png" width="362" height="299" /></g></g></g><g clip-path="url(#6)"><path transform="matrix(1 0 0 -1 0 540)" d="M92.212 467.98L121.12 498.48L121.12 498.48L90.628 527.39L90.628 527.39L61.717 496.89z" stroke="none" fill="none" /></g><g clip-path="url(#7)"><g transform="matrix(0.3274108 0 0 0.3274108 862.76 -0.0009765625)"><g transform="matrix(1 0 0 1 0 0)"><image x="0" y="0" xlink:href="img_44.png" width="297" height="297" /></g></g></g><g clip-path="url(#8)"><g transform="matrix(0.523 0 0 0.523 -16.312 278.5)"><g transform="matrix(1 0 0 1 0 0)"><image x="0" y="0" xlink:href="img_97.png" width="1000" height="500" /></g></g></g><g clip-path="url(#9)"><g transform="matrix(0.4727787 0 0 0.4727699 20.875 98.45001)"><g transform="matrix(1 0 0 1 0 0)"><image x="0" y="0" xlink:href="img_98.png" width="637" height="426" /></g></g></g><g clip-path="url(#10)"><g transform="matrix(0.5520145 0 0 0.5521277 502.38 278.5)"><g transform="matrix(1 0 0 1 0 0)"><image x="0" y="0" xlink:href="img_99.png" width="829" height="470" /></g></g></g></g></g></g></svg>