<svg xmlns="http://www.w3.org/2000/svg" xmlns:xlink="http://www.w3.org/1999/xlink" id="body_55" preserveAspectRatio="xMinYMin meet" viewBox="0 0 1280 720"><defs><clipPath id="1"><path d="M0 540L0 0L0 0L960 0L960 0L960 540L960 540L0 540z" /></clipPath><clipPath id="2"><path d="M0 539.9999L960 539.9999L960 539.9999L960 -0.0001220703L960 -0.0001220703L0 -0.0001220703z" /></clipPath><clipPath id="3"><path d="M-1.4E-08 539.9998L960 539.9998L960 539.9998L960 -0.0002441406L960 -0.0002441406L-1.4E-08 -0.0002441406z" /></clipPath><pattern patternTransform="matrix(0.43749 0 0 -0.36215 -0.89181 333.44)" id="523" x="0" y="0" width="971" height="921" patternUnits="userSpaceOnUse"><image x="0" y="0" width="971" height="921" xlink:href="img_01.png" /></pattern><clipPath id="4"><path d="M-1.4E-08 539.9998L960 539.9998L960 539.9998L960 -0.0002441406L960 -0.0002441406L-1.4E-08 -0.0002441406z" /></clipPath><pattern patternTransform="matrix(0.32702 0 0 -0.327 -0.89181 333.44)" id="973" x="0" y="0" width="1299" height="1020" patternUnits="userSpaceOnUse"><image x="0" y="0" width="1299" height="1020" xlink:href="img_02.png" /></pattern><clipPath id="5"><path d="M0 540L960 540L960 540L960 0L960 0L0 0z" /></clipPath><pattern patternTransform="matrix(0.32742 0 0 -0.32742 209.52 333.59)" id="1360" x="0" y="0" width="603" height="603" patternUnits="userSpaceOnUse"><image x="0" y="0" width="603" height="603" xlink:href="img_04.png" /></pattern><pattern patternTransform="matrix(0.32742 0 0 -0.32742 209.52 333.59)" id="1608" x="0" y="0" width="603" height="603" patternUnits="userSpaceOnUse"><image x="0" y="0" width="603" height="603" xlink:href="img_05.png" /></pattern><clipPath id="6"><path d="M0 540L960 540L960 540L960 0L960 0L0 0z" /></clipPath><pattern patternTransform="matrix(0.32727 0 0 -0.32713 102.63 441.55)" id="1992" x="0" y="0" width="600" height="599" patternUnits="userSpaceOnUse"><image x="0" y="0" width="600" height="599" xlink:href="img_07.png" /></pattern><pattern patternTransform="matrix(0.32727 0 0 -0.32767 102.63 441.55)" id="2240" x="0" y="0" width="600" height="598" patternUnits="userSpaceOnUse"><image x="0" y="0" width="600" height="598" xlink:href="img_08.png" /></pattern><clipPath id="7"><path d="M0 540L960 540L960 540L960 0L960 0L0 0z" /></clipPath><clipPath id="8"><path d="M0 540L960 540L960 540L960 0L960 0L0 0z" /></clipPath><clipPath id="9"><path d="M-1.701E-06 0L960 0L960 0L960 539.9999L960 539.9999L-2.073E-06 540" /></clipPath><clipPath id="10"><path d="M0 540L960 540L960 540L960 0L960 0L0 0z" /></clipPath><clipPath id="11"><path d="M-4.63E-07 0L960 0L960 0L960 539.9999L960 539.9999L-2.264E-06 539.9999" /></clipPath><clipPath id="12"><path d="M0 540L960 540L960 540L960 0L960 0L0 0z" /></clipPath><clipPath id="13"><path d="M0 540L960 540L960 540L960 0L960 0L0 0z" /></clipPath><clipPath id="14"><path d="M0 540L960 540L960 540L960 0L960 0L0 0z" /></clipPath><clipPath id="15"><path d="M-5.344E-06 0L960 0L960 0L960 540.0001L960 540.0001L-4.545E-06 540" /></clipPath><clipPath id="16"><path d="M0 540L960 540L960 540L960 0L960 0L0 0z" /></clipPath><clipPath id="17"><path d="M-2.13E-06 0L960 0L960 0L960 540L960 540L1.6E-06 540" /></clipPath><clipPath id="18"><path d="M0 540L960 540L960 540L960 0L960 0L0 0z" /></clipPath><clipPath id="19"><path d="M0 540L960 540L960 540L960 0L960 0L0 0z" /></clipPath><clipPath id="20"><path d="M-6.6E-08 539.9998L960 539.9998L960 539.9998L960 -0.0002441406L960 -0.0002441406L-6.6E-08 -0.0002441406z" /></clipPath></defs><g transform="matrix(1.333333 0 0 1.333333 0 0)"><g><g clip-path="url(#1)"><g clip-path="url(#2)"><path transform="matrix(1 0 0 -1 0 540)" d="M0 6.104E-06L960 6.104E-06L960 6.104E-06L960 540L960 540L0 540z" stroke="none" fill="#FFFFFF" fill-rule="evenodd" /></g><g clip-path="url(#3)"><path transform="matrix(1 0 0 -1 0 540)" d="M90.371 333.44L423.91 -0.098389L423.91 -0.098389L-0.89181 -0.098389L-0.89181 -0.098389L-0.89181 242.18z" stroke="none" fill="url(#523)" /></g><g clip-path="url(#4)"><path transform="matrix(1 0 0 -1 0 540)" d="M90.371 333.44L423.91 -0.098389L423.91 -0.098389L-0.89181 -0.098389L-0.89181 -0.098389L-0.89181 242.18z" stroke="none" fill="url(#973)" /></g><g clip-path="url(#5)"><g transform="matrix(0.36 0 0 0.3598706 0 206.3999)"><g transform="matrix(1 0 0 1 0 0)"><image x="0" y="0" xlink:href="img_03.png" width="1178" height="927" /></g></g></g><path transform="matrix(1 0 0 -1 0 540)" d="M307.7 333.59L406.96 234.12L406.96 234.12L309.2 136.15L309.2 136.15L306.2 136.15L306.2 136.15L209.52 233.04L209.52 233.04L209.52 235.2z" stroke="none" fill="url(#1360)" /><path transform="matrix(1 0 0 -1 0 540)" d="M307.7 333.59L406.96 234.12L406.96 234.12L309.2 136.15L309.2 136.15L306.2 136.15L306.2 136.15L209.52 233.04L209.52 233.04L209.52 235.2z" stroke="none" fill="url(#1608)" /><g clip-path="url(#6)"><g transform="matrix(0.36 0 0 0.36 209.4 206.28)"><g transform="matrix(1 0 0 1 0 0)"><image x="0" y="0" xlink:href="img_06.png" width="549" height="549" /></g></g></g><path transform="matrix(1 0 0 -1 0 540)" d="M200.28 441.55L299 342.83L299 342.83L201.77 245.6L201.77 245.6L198.79 245.6L198.79 245.6L102.63 341.76L102.63 341.76L102.63 343.9z" stroke="none" fill="url(#1992)" /><path transform="matrix(1 0 0 -1 0 540)" d="M200.28 441.55L299 342.83L299 342.83L201.77 245.6L201.77 245.6L198.79 245.6L198.79 245.6L102.63 341.76L102.63 341.76L102.63 343.9z" stroke="none" fill="url(#2240)" /><g clip-path="url(#7)"><g transform="matrix(0.3602198 0 0 0.36 102.48 98.28)"><g transform="matrix(1 0 0 1 0 0)"><image x="0" y="0" xlink:href="img_09.png" width="546" height="545" /></g></g></g><g clip-path="url(#8)"><g transform="matrix(0.3598558 0 0 0.359836 283.2 276.5999)"><g transform="matrix(1 0 0 1 0 0)"><image x="0" y="0" xlink:href="img_10.png" width="832" height="732" /></g></g></g><g clip-path="url(#9)"><path transform="matrix(1 0 0 -1 0 540)" d="M418.18 227.07L319.47 128.35L319.47 128.35L447.57 0.24286L447.57 0.24286L546.29 98.961z" stroke="none" fill="none" /></g><g clip-path="url(#10)"><g transform="matrix(0.3601932 0 0 0.36 2E-07 0)"><g transform="matrix(1 0 0 1 0 0)"><image x="0" y="0" xlink:href="img_11.png" width="621" height="869" /></g></g></g><g clip-path="url(#11)"><path transform="matrix(1 0 0 -1 0 540)" d="M-5E-07 540L98.863 540L98.863 540L187.59 451.27L187.59 451.27L-6.97E-06 263.69z" stroke="none" fill="none" /></g><g clip-path="url(#12)"><g transform="matrix(0.3601237 0 0 0.359708 505.8 65.28)"><g transform="matrix(1 0 0 1 0 0)"><image x="0" y="0" xlink:href="img_215.png" width="970" height="411" /></g></g></g><g clip-path="url(#13)"><g transform="matrix(0.36 0 0 0.359708 765.48 65.28)"><g transform="matrix(1 0 0 1 0 0)"><image x="0" y="0" xlink:href="img_216.png" width="339" height="411" /></g></g></g><g clip-path="url(#14)"><g transform="matrix(0.36 0 0 0.3605063 776.4 0)"><g transform="matrix(1 0 0 1 0 0)"><image x="0" y="0" xlink:href="img_16.png" width="510" height="237" /></g></g></g><g clip-path="url(#15)"><path transform="matrix(1 0 0 -1 0 540)" d="M913.91 490.75L1009.96 592.06L1009.96 592.06L908.64 688.11L908.64 688.11L812.59 586.8z" stroke="none" fill="none" /></g><g clip-path="url(#16)"><g transform="matrix(0.3603093 0 0 0.3603061 820.2 398.7599)"><g transform="matrix(1 0 0 1 0 0)"><image x="0" y="0" xlink:href="img_17.png" width="388" height="392" /></g></g></g><g clip-path="url(#17)"><path transform="matrix(1 0 0 -1 0 540)" d="M964.24 -105.07L1066.51 2.8014L1066.51 2.8014L958.64 105.07L958.64 105.07L856.37 -2.8015z" stroke="none" fill="none" /></g><g clip-path="url(#18)"><g transform="matrix(0.3601664 0 0 0.3603208 509.52 152.4)"><g transform="matrix(1 0 0 1 0 0)"><image x="0" y="0" xlink:href="img_217.png" width="721" height="374" /></g></g></g><g clip-path="url(#19)"><g transform="matrix(0.3603884 0 0 0.3603208 687.36 152.4)"><g transform="matrix(1 0 0 1 0 0)"><image x="0" y="0" xlink:href="img_218.png" width="309" height="374" /></g></g></g><g clip-path="url(#20)"><g transform="matrix(0.3275694 0 0 0.3275694 -3.1365 14.08002)"><g transform="matrix(1 0 0 1 0 0)"><image x="0" y="0" xlink:href="img_18.png" width="432" height="432" /></g></g></g><path transform="matrix(1 0 0 -1 0 540)" d="M597.29 176.7L597.29 95.702" stroke="#000000" stroke-width="0.5" fill="none" /><path transform="matrix(1 0 0 -1 0 540)" d="M546.29 72.769L916.79 72.769L916.79 72.769L916.79 189.029L916.79 189.029L546.29 189.029z" stroke="#00B0F0" stroke-width="1" fill="none" /></g></g></g></svg>